<svg width="65" height="64" viewBox="0 0 65 64" fill="none" xmlns="http://www.w3.org/2000/svg">
<path d="M60.5 32C60.5 47.456 47.97 60 32.5 60C17.03 60 4.5 47.456 4.5 32C4.5 16.53 17.03 4 32.5 4C47.97 4 60.5 16.53 60.5 32Z" fill="url(#paint0_radial_0_1816)" fill-opacity="0.36"/>
<path fill-rule="evenodd" clip-rule="evenodd" d="M29.0915 19.8844C30.1002 19.3211 31.2626 19 32.5 19C33.7374 19 34.8998 19.3211 35.9085 19.8844L36.6464 19.1464C36.8417 18.9512 37.1583 18.9512 37.3536 19.1464C37.5488 19.3417 37.5488 19.6583 37.3536 19.8536L36.7612 20.4459C38.4266 21.7256 39.5 23.7374 39.5 26H25.5C25.5 23.7374 26.5734 21.7256 28.2388 20.4459L27.6464 19.8536C27.4512 19.6583 27.4512 19.3417 27.6464 19.1464C27.8417 18.9512 28.1583 18.9512 28.3536 19.1464L29.0915 19.8844ZM30.5 23C30.5 23.5523 30.0523 24 29.5 24C28.9477 24 28.5 23.5523 28.5 23C28.5 22.4477 28.9477 22 29.5 22C30.0523 22 30.5 22.4477 30.5 23ZM35.5 24C36.0523 24 36.5 23.5523 36.5 23C36.5 22.4477 36.0523 22 35.5 22C34.9477 22 34.5 22.4477 34.5 23C34.5 23.5523 34.9477 24 35.5 24Z" fill="white"/>
<path d="M21.5 28.5C21.5 27.6716 22.1716 27 23 27C23.8284 27 24.5 27.6716 24.5 28.5V34.5C24.5 35.3284 23.8284 36 23 36C22.1716 36 21.5 35.3284 21.5 34.5V28.5Z" fill="white"/>
<path d="M28.5 40V43.5C28.5 44.3284 29.1716 45 30 45C30.8284 45 31.5 44.3284 31.5 43.5V40H33.5V43.5C33.5 44.3284 34.1716 45 35 45C35.8284 45 36.5 44.3284 36.5 43.5V40H37.5C38.6046 40 39.5 39.1046 39.5 38V27H25.5V38C25.5 39.1046 26.3954 40 27.5 40H28.5Z" fill="white"/>
<path d="M40.5 28.5C40.5 27.6716 41.1716 27 42 27C42.8284 27 43.5 27.6716 43.5 28.5V34.5C43.5 35.3284 42.8284 36 42 36C41.1716 36 40.5 35.3284 40.5 34.5V28.5Z" fill="white"/>
<defs>
<radialGradient id="paint0_radial_0_1816" cx="0" cy="0" r="1" gradientUnits="userSpaceOnUse" gradientTransform="translate(32.5 32) rotate(77.7434) scale(49.4607 67.935)">
<stop stop-color="#3594EC" stop-opacity="0"/>
<stop offset="1" stop-color="#3594EC"/>
</radialGradient>
</defs>
</svg>
