<svg width="65" height="64" viewBox="0 0 65 64" fill="none" xmlns="http://www.w3.org/2000/svg">
<path d="M60.5 32C60.5 47.456 47.97 60 32.5 60C17.03 60 4.5 47.456 4.5 32C4.5 16.53 17.03 4 32.5 4C47.97 4 60.5 16.53 60.5 32Z" fill="url(#paint0_radial_0_1807)" fill-opacity="0.36"/>
<path d="M45.6242 24.9148C45.4714 25.0039 41.8341 26.885 41.8341 31.0557C42.0056 35.8122 46.4242 37.4802 46.5 37.4802C46.4242 37.5694 45.8329 39.7526 44.0814 42.0411C42.6913 44.0124 41.1484 46 38.8056 46C36.577 46 35.777 44.6862 33.2056 44.6862C30.4441 44.6862 29.6627 46 27.5484 46C25.2055 46 23.5484 43.9059 22.0825 41.9531C20.1782 39.3972 18.5596 35.3862 18.5024 31.5349C18.4639 29.4941 18.8838 27.4881 19.9496 25.7841C21.454 23.4053 24.1397 21.7905 27.0726 21.7372C29.3198 21.6666 31.3198 23.1749 32.6913 23.1749C34.0056 23.1749 36.4627 21.7372 39.2428 21.7372C40.4428 21.7384 43.6428 22.0752 45.6242 24.9148ZM32.5012 21.3298C32.1012 19.4661 33.2056 17.6024 34.2341 16.4135C35.5484 14.9758 37.6242 14 39.4143 14C39.5286 15.8637 38.8043 17.6915 37.5099 19.0227C36.3484 20.4604 34.3484 21.5428 32.5012 21.3298Z" fill="white"/>
<defs>
<radialGradient id="paint0_radial_0_1807" cx="0" cy="0" r="1" gradientUnits="userSpaceOnUse" gradientTransform="translate(32.5 32) rotate(77.7434) scale(49.4607 67.935)">
<stop stop-color="#3594EC" stop-opacity="0"/>
<stop offset="1" stop-color="#3594EC"/>
</radialGradient>
</defs>
</svg>
