<svg width="1487" height="913" viewBox="0 0 1487 913" fill="none" xmlns="http://www.w3.org/2000/svg">
<g clip-path="url(#clip0_0_2087)">
<g filter="url(#filter0_d_0_2087)">
<rect width="212.043" height="212.043" rx="70.6809" transform="matrix(0.866025 0.5 -0.866025 0.5 1168.73 0.435547)" fill="#262C3D" shape-rendering="crispEdges"/>
<path d="M1109.22 132.395L1155.32 54.4282C1155.49 54.1414 1155.78 53.8844 1156.17 53.6813C1156.56 53.4782 1157.04 53.3356 1157.55 53.2669C1158.06 53.1982 1158.59 53.2056 1159.1 53.2885C1159.61 53.3714 1160.07 53.527 1160.44 53.7407L1175.8 62.6117C1176.21 62.8452 1176.5 63.1387 1176.63 63.4601C1176.77 63.7815 1176.75 64.1184 1176.58 64.434L1143.34 121.114C1142.66 122.254 1142.55 123.481 1143.02 124.655C1143.49 125.83 1144.52 126.904 1145.99 127.757C1147.47 128.609 1149.33 129.205 1151.36 129.476C1153.4 129.747 1155.52 129.682 1157.5 129.289L1255.6 110.106C1256.15 110.006 1256.73 109.995 1257.29 110.074C1257.84 110.153 1258.35 110.319 1258.76 110.553L1260.68 111.663C1260.96 111.803 1261.17 111.985 1261.28 112.189C1261.39 112.393 1261.41 112.611 1261.32 112.819C1261.24 113.028 1261.05 113.219 1260.79 113.371C1260.53 113.523 1260.21 113.632 1259.85 113.684L1123.4 140.579C1121.42 140.97 1119.3 141.033 1117.26 140.761C1115.23 140.489 1113.36 139.893 1111.89 139.04C1110.41 138.187 1109.38 137.113 1108.91 135.938C1108.44 134.763 1108.55 133.536 1109.22 132.395Z" fill="#E9E9E9"/>
</g>
<g filter="url(#filter1_d_0_2087)">
<rect width="213.344" height="213.344" rx="71.1145" transform="matrix(0.866025 0.5 -0.866025 0.5 1345.69 495.1)" fill="#262C3D" shape-rendering="crispEdges"/>
<path d="M1399.45 571.253C1413.74 579.503 1427.46 587.424 1441.75 595.675C1442.89 596.335 1442.89 596.999 1442.31 597.333C1432.36 612.316 1423 626.964 1414.2 641.943C1414.2 642.607 1413.04 642.611 1411.89 642.615C1392.33 642.687 1372.77 642.759 1352.64 642.501C1327.91 642.26 1302.02 642.023 1277.29 641.782C1275.57 641.456 1275.57 641.456 1275.58 640.792C1275.16 626.512 1274.74 612.232 1274.9 597.617C1275.03 586.324 1274.58 574.701 1274.7 563.408C1274.71 562.744 1275.29 562.41 1275.87 562.076C1289.13 559.038 1302.39 556.664 1315.66 553.626C1328.34 550.922 1340.45 548.553 1353.13 545.849C1354.86 545.51 1356.01 545.506 1357.73 546.496C1371.44 555.081 1385.74 562.668 1399.45 571.253ZM1384.39 580.608C1374.1 574.667 1363.24 568.397 1352.95 562.456C1352.38 562.126 1352.38 562.126 1351.81 561.796C1351.24 561.466 1351.24 561.466 1350.66 561.8C1345.45 564.809 1340.24 567.817 1333.87 570.83C1333.3 571.164 1333.3 571.164 1333.87 571.494C1335.58 572.484 1337.3 573.474 1339.01 574.464C1344.73 577.765 1350.44 581.065 1356.16 584.365C1356.73 584.695 1356.73 584.695 1357.3 585.025C1357.88 585.355 1357.3 585.69 1356.72 586.024C1354.4 587.361 1351.51 589.032 1349.19 590.369C1348.61 590.703 1348.61 590.703 1347.46 590.708C1342.88 588.732 1338.88 586.422 1334.3 584.446C1328.58 581.81 1322.27 579.508 1315.96 577.87C1313.1 576.885 1310.23 576.563 1307.35 576.241C1303.9 576.254 1301.58 577.591 1302.14 579.25C1302.13 580.578 1302.69 581.573 1303.26 582.567C1305.52 585.88 1308.94 588.525 1311.79 591.503C1316.34 595.472 1321.48 599.107 1326.62 602.741C1327.76 603.401 1327.76 603.401 1326.6 604.07C1316.18 610.087 1305.18 616.438 1294.76 622.454C1293.6 623.123 1293.6 623.123 1294.75 623.783C1299.89 626.753 1305.61 630.053 1310.75 633.024C1312.47 634.014 1312.47 634.014 1314.2 633.011C1322.89 627.997 1330.99 623.317 1339.68 618.303C1341.99 616.966 1344.31 615.629 1346.63 614.292C1347.78 613.624 1348.36 613.954 1348.93 614.284C1354.64 617.584 1360.37 620.22 1367.24 622.852C1372.39 625.158 1377.55 626.799 1383.29 628.107C1385.01 628.433 1387.31 628.424 1389.04 628.75C1391.34 628.742 1392.5 628.073 1392.51 626.744C1391.95 625.75 1392.53 624.752 1391.97 623.757C1389.16 617.457 1382.9 611.834 1375.47 606.879C1373.18 605.559 1370.9 604.239 1369.19 602.585C1368.62 602.254 1368.62 602.254 1369.78 601.586C1372.09 600.249 1374.99 598.578 1377.3 597.241C1377.88 596.906 1378.46 596.572 1379.6 597.232C1381.32 598.222 1383.03 599.212 1384.75 600.202C1390.47 603.503 1395.61 606.473 1401.33 609.773C1402.47 610.433 1403.05 610.099 1403.63 609.765C1404.21 609.43 1404.21 609.43 1404.79 609.096C1409.42 606.422 1414.05 603.748 1419.26 600.74C1420.42 600.071 1420.42 600.071 1419.27 599.411C1405.54 592.819 1394.68 586.548 1384.39 580.608Z" fill="white"/>
<path d="M1337.52 604.359C1333.52 602.049 1330.09 600.069 1326.67 597.425C1320.96 593.46 1314.68 589.165 1310.7 584.198C1310.14 583.204 1309.57 582.209 1308.44 580.885C1307.88 579.226 1309.04 578.558 1311.33 579.214C1314.78 579.865 1317.64 580.851 1320.51 581.837C1326.24 583.809 1331.39 586.115 1337.12 588.751C1338.83 589.741 1341.7 590.727 1343.41 591.717C1343.98 592.047 1344.55 592.377 1343.4 593.045C1339.92 595.051 1337.03 596.722 1333.55 598.728C1332.4 599.396 1332.97 599.726 1333.54 600.056C1338.11 602.697 1342.69 605.337 1346.69 607.647C1347.83 608.307 1348.97 608.967 1350.12 609.627C1351.26 610.287 1351.26 610.287 1352.42 609.619C1355.31 607.947 1358.21 606.276 1361.1 604.605C1362.84 603.602 1362.84 603.602 1364.55 604.592C1371.41 609.217 1378.26 613.841 1383.37 619.469C1383.94 620.463 1385.07 621.788 1385.64 622.782C1386.2 623.776 1385.04 624.445 1383.32 624.119C1379.3 623.802 1376.43 622.816 1373 621.5C1366.12 618.868 1359.25 616.236 1353.53 612.936C1348.96 610.296 1342.66 607.33 1337.52 604.359Z" fill="white"/>
</g>
<g filter="url(#filter2_d_0_2087)">
<rect width="213.344" height="213.344" rx="71.1145" transform="matrix(0.866025 0.5 -0.866025 0.5 889.054 500.35)" fill="#262C3D" shape-rendering="crispEdges"/>
<path d="M823.153 597.071C824.628 597.09 826.054 597.447 827.12 598.062L925.422 654.817C927.212 655.85 926.037 657.564 923.558 657.532L885.559 657.042C884.085 657.023 882.658 656.667 881.592 656.052L783.29 599.297C781.5 598.263 782.676 596.549 785.154 596.581L823.153 597.071Z" fill="#E9E9E9"/>
<path d="M892.549 557.006C894.024 557.025 895.45 557.381 896.516 557.996L994.818 614.751C996.608 615.785 995.432 617.499 992.954 617.467L954.955 616.977C953.48 616.958 952.054 616.601 950.988 615.986L852.686 559.231C850.896 558.198 852.072 556.484 854.55 556.515L892.549 557.006Z" fill="#E9E9E9"/>
<path d="M941.211 624.911C941.178 624.06 940.561 623.236 939.496 622.621L841.194 565.867C839.403 564.833 836.434 565.512 836.49 566.942L837.339 588.881C837.372 589.733 837.989 590.556 839.054 591.172L937.356 647.926C939.147 648.96 942.116 648.281 942.06 646.85L941.211 624.911Z" fill="#E9E9E9"/>
</g>
<g filter="url(#filter3_d_0_2087)">
<rect width="213.344" height="213.344" rx="71.1145" transform="matrix(0.866025 0.5 -0.866025 0.5 1021.59 232.678)" fill="#E9E9E9" shape-rendering="crispEdges"/>
<g clip-path="url(#clip1_0_2087)">
<path d="M1090.86 299.34L1086.97 300.541L1000.46 350.491L1000.48 351.517L1065.54 361.666L1090.86 299.34Z" fill="#12151E"/>
<path d="M1090.86 299.341L982.907 313.959L1000.48 351.518L1042.48 327.274L1090.86 299.341Z" fill="#696D7E"/>
<path d="M992.88 355.908L991.769 355.962L960.95 373.756L960.015 374.883L1057.95 366.078L992.88 355.908Z" fill="#12151E"/>
<path d="M960.016 374.883L992.881 355.908L975.292 318.356L960.016 374.883Z" fill="#696D7E"/>
<path d="M1000.48 351.517L1065.54 361.665L1042.48 327.273L1000.48 351.517Z" fill="#12151E"/>
<path d="M982.908 313.959L1000.48 351.518L1042.48 327.273L982.908 313.959Z" fill="#3A3E48"/>
</g>
</g>
<g filter="url(#filter4_d_0_2087)">
<rect width="213.344" height="213.344" rx="71.1145" transform="matrix(0.866025 0.5 -0.866025 0.5 648.937 63.416)" fill="#262C3D"/>
<path fill-rule="evenodd" clip-rule="evenodd" d="M657.374 173.723C664.218 176.133 672.13 176.376 680.985 172.591C693.097 167.429 690.957 159.714 684.047 151.44L701.839 145.24L695.533 139.16L678.208 145.195C676.559 143.597 674.814 141.983 673.069 140.382L690.513 134.305L684.212 128.228L666.426 134.424C665.008 133.125 663.625 131.845 662.32 130.584L662.372 130.568L653.688 122.179L642.125 126.208C642.125 126.208 646.925 130.647 646.704 130.618C649.256 133.087 647.544 134.775 645.587 135.774L625.316 142.836C625.539 143.052 625.737 143.276 625.908 143.507L625.236 142.862L596.843 152.757C595.351 153.128 592.683 153.439 590.882 151.72C590.847 151.839 586.308 147.3 586.308 147.3L572.13 150.597L580.328 158.513C581.25 159.405 582.148 160.292 583.037 161.17L583.037 161.171L583.039 161.172C583.618 161.745 584.194 162.314 584.77 162.878L566.773 169.15L573.063 175.22L590.866 169.021C592.485 170.659 594.135 172.286 595.817 173.903L578.087 180.079L584.388 186.156L602.352 179.903C613.998 189.758 625.999 195.316 644.016 190.248C658.524 186.167 660.896 180.391 657.374 173.723ZM661.603 215.299L677.15 209.886L686.398 218.817L696.765 215.205L687.511 206.277L703.052 200.86L696.887 194.908L681.34 200.321L672.086 191.393L661.725 195.002L670.979 203.93L655.432 209.35L661.603 215.299ZM633.704 177.492C646.311 173.099 635.055 162.811 629.551 157.779L629.551 157.779C628.932 157.213 628.385 156.714 627.954 156.297L604.132 164.605C604.486 164.946 604.893 165.351 605.348 165.805C610.388 170.829 621.39 181.797 633.721 177.496L633.704 177.492ZM661.815 146.183C666.424 150.367 675.865 158.937 664.394 162.939C653.165 166.848 644.03 157.672 639.859 153.48C639.485 153.105 639.15 152.769 638.858 152.487L660.48 144.952C660.84 145.298 661.297 145.713 661.815 146.183Z" fill="white"/>
</g>
<g filter="url(#filter5_d_0_2087)">
<rect width="213.344" height="213.344" rx="71.1145" transform="matrix(0.866025 0.5 -0.866025 0.5 498.046 336.336)" fill="#262C3D" shape-rendering="crispEdges"/>
<path d="M528.394 402.066C527.127 401.068 527.095 401.013 527.905 401.359C529.467 402.018 532.374 404.031 534.057 405.603C537.969 409.277 539.515 413.782 538.953 419.875L538.805 421.49L540.998 422.41C550.279 426.281 557.389 431.57 561.048 437.308C562.058 438.886 563.288 441.582 563.21 442.053C563.194 442.202 562.5 442.851 561.674 443.492C558.829 445.717 556.011 447.053 553.071 447.572C551.473 447.851 551.115 448.021 550.595 448.753C550.403 449.069 550.368 449.409 550.494 449.735C550.621 450.061 550.903 450.361 551.31 450.599C553.003 451.576 557.557 451.048 562.2 449.339L564.046 448.662L563.956 449.479C563.473 453.96 560.707 458.854 557.199 461.443L556.284 462.123L556.616 461.222C557.194 459.673 557.257 458.423 556.8 457.12C555.974 454.779 553.939 452.973 547.466 448.817C541.619 445.064 538.648 442.742 536.318 440.092C532.343 435.58 531.933 432.386 534.115 423.039C535.088 418.889 535.419 416.475 535.324 414.326C535.109 409.429 533.005 405.713 528.394 402.066Z" fill="white"/>
<path d="M570.003 440.169C572.895 438.682 575.067 437.853 577.459 437.334C578.406 437.127 579.221 436.978 579.263 437.003C578.847 437.189 578.389 437.341 577.901 437.455C575.761 438.065 573.484 439.277 571.318 440.959C568.562 443.096 568.373 443.521 568.294 447.501C568.262 449.371 568.063 451.636 567.847 452.538L567.463 454.174L567.389 452.802C567.295 451.126 566.595 447.547 566.222 446.882C565.975 446.435 565.891 446.393 565.265 446.39C564.681 446.393 564.187 446.605 562.094 447.771C558.834 449.581 556.336 450.519 553.229 451.093C551.556 451.402 551.698 451.217 553.471 450.789C554.79 450.47 555.237 450.255 558.335 448.466C564.56 444.872 565.312 443.582 563.54 439.595C562.992 438.404 562.347 437.229 561.605 436.074C561.2 435.526 560.862 434.962 560.596 434.386C560.838 434.386 563.835 437.537 564.876 438.897C566.438 440.922 566.727 441.235 567.158 441.344C567.442 441.417 568.141 441.129 570.003 440.169ZM508.837 417.151C509.984 412.973 514.532 408.174 519.743 405.632L521.358 404.846L521.925 405.32C522.993 406.209 524.402 407.988 524.812 408.966C525.943 411.641 524.886 413.696 520.232 417.846C518.87 419.063 517.398 420.478 516.956 420.994C516.246 421.817 515.116 424.048 514.606 425.63C514.238 426.766 513.149 426.775 511.54 425.664C509.084 423.96 507.949 420.39 508.837 417.151ZM524.455 462.204C515.952 450.677 515.915 444.911 524.307 440.066C525.543 439.353 526.595 438.794 526.642 438.821C526.695 438.852 526.842 439.404 526.963 440.051C527.536 443.053 529.781 445.491 537.422 451.408C541.913 454.894 544.258 456.964 546.088 459.065C551.893 465.744 551.42 472.223 544.742 477.56C542.796 479.108 538.242 481.488 535.35 482.46C533.068 483.231 528.356 484.269 527.846 484.12C527.71 484.078 528.009 483.783 528.54 483.44C531.38 481.631 532.784 479.078 532.426 476.352C532.016 473.255 530.123 469.879 524.455 462.204ZM512.087 457.808C512.934 457.125 513.709 456.412 514.406 455.674L515.121 454.836L515.042 455.665C514.921 456.809 514.327 458.008 513.16 459.399C512.276 460.461 511.924 460.726 509.705 462.001C507.528 463.258 507.018 463.485 505.346 463.941C502.927 464.628 500.264 464.978 497.569 464.964C492.315 464.991 487.514 463.907 482.077 461.472C481.131 461.047 478.512 459.742 476.251 458.564C470.551 455.601 466.413 453.88 462.085 452.68C461.667 452.588 461.282 452.452 460.949 452.28C460.954 452.131 464.43 452.638 467.101 453.178C470.866 453.937 474.058 455.009 480.663 457.735C483.928 459.08 487.383 460.425 488.34 460.716C497.395 463.491 506.439 462.386 512.087 457.808Z" fill="white"/>
<path d="M501.852 467.303C504.024 463.864 507.521 461.347 512.216 459.832C512.716 459.671 513.216 459.589 513.321 459.65C513.548 459.93 513.702 460.227 513.778 460.533C514.062 461.377 514.819 462.956 516.938 467.106C519.578 472.291 520.435 475.622 519.894 478.539C519.41 481.096 517.832 483.415 515.014 485.722C513.415 487.028 508.578 489.596 506.138 490.434C498.445 493.072 489.994 493.755 482.012 492.389C481.241 492.27 480.484 492.123 479.746 491.949C479.672 491.907 480.645 491.661 481.923 491.403C487.297 490.304 491.046 488.376 493.67 485.337C495.279 483.479 496.583 480.825 498.24 476.038C500.164 470.47 500.764 469.031 501.852 467.303ZM426.457 449.1C436.201 449.576 445.934 451.541 452.897 454.437C455.894 455.682 460.027 458.262 461.804 459.993C464.654 462.768 465.885 466.016 465.054 468.554C464.234 471.031 462.756 472.753 458.576 476.059C456.935 477.37 455.305 478.694 454.958 479.01C452.97 480.825 452.055 482.671 452.434 484.08C453.033 486.314 456.788 488.597 462.046 489.933C462.623 490.057 463.171 490.222 463.676 490.425C463.676 490.583 460.495 490.222 458.476 489.833C456.037 489.407 453.827 488.628 452.055 487.571C448.585 485.567 447.465 482.887 448.664 479.42C448.9 478.737 449.957 476.9 451.014 475.33C454.264 470.527 454.779 468.785 453.764 465.971C452.875 463.514 449.868 461.432 446.161 460.7C441.286 459.738 436.196 461.626 435.891 464.504C435.77 465.649 436.595 467.176 437.842 468.096C438.379 468.501 439.061 468.834 439.84 469.074C440.62 469.314 441.48 469.454 442.362 469.486C443.244 469.517 444.127 469.439 444.952 469.256C445.777 469.073 446.525 468.79 447.144 468.427C448.89 467.419 449.205 466.459 448.285 465.048C447.023 463.123 443.342 462.394 441.191 463.648C440.276 464.182 440.098 464.747 440.602 465.524C440.934 466.019 440.918 466.04 440.534 465.703C438.867 464.231 440.913 462.479 444.299 462.485C448.364 462.488 451.682 465.436 450.362 467.868C449.81 468.891 447.559 470.269 445.629 470.77C441.318 471.894 436.217 470.843 433.603 468.302C431.826 466.572 431.511 465.63 431.6 462.258C431.753 456.395 430.811 454.698 424.722 449.883L423.555 448.96L426.457 449.1Z" fill="white"/>
<path fill-rule="evenodd" clip-rule="evenodd" d="M505.643 377.279L505.533 377.925C501.158 402.966 498.844 415.935 498.602 416.816C498.192 418.267 496.489 418.795 493.649 418.346C492.072 418.097 489.421 417.235 488.391 416.64C487.218 415.963 486.461 414.876 486.408 413.795C486.377 413.03 487.728 409.086 491.22 399.766C492.897 395.377 494.512 390.979 496.063 386.575C496.047 386.286 496.047 386.292 489.132 400.4C484.789 409.259 483.174 412.341 482.706 412.611C481.76 413.157 481.003 413.291 478.531 413.37C474.414 413.5 471.106 414.408 465.427 416.958C459.059 419.821 453.086 420.987 440.755 421.767C433.54 422.229 432.278 422.35 429.849 422.812C426.799 423.395 425.379 423.892 422.698 425.307C419.863 426.804 418.344 427.955 416.582 429.931C415.036 431.661 414.289 432.967 413.227 435.815C412.307 438.277 411.345 439.943 410.593 440.378C409.993 440.724 410.109 440.79 413.285 441.95C420.883 444.722 428.382 446.204 434.234 446.097C437.852 446.03 439.293 445.672 441.87 444.203C443.547 443.24 443.842 443.004 444.352 442.187C445.182 440.857 445.146 439.33 444.21 436.458C442.984 432.691 443.468 430.505 445.94 428.55C447.964 426.944 450.099 426.215 456.735 424.861C463.597 423.455 466.127 422.633 471.185 420.143C474.451 418.531 475.976 418.033 477.806 417.985C479.709 417.93 480.871 418.206 483.422 419.326C487.581 421.151 490.857 421.949 494.532 422.037C497.73 422.11 499.901 421.658 502.226 420.438L503.992 419.515L504.145 418.352C504.366 416.682 505.507 403.266 507.573 378.095L507.621 377.424L505.643 377.279ZM428.513 432.217C429.53 432.054 430.403 431.676 430.96 431.159C431.517 430.642 431.717 430.022 431.521 429.424C431.122 428.27 428.876 427.411 427.835 428.012C427.52 428.194 427.462 428.428 427.651 428.774C427.977 429.357 427.635 429.609 426.331 429.761C425.001 429.916 424.338 430.347 424.47 430.975C424.68 431.983 426.489 432.536 428.513 432.217ZM495.295 427.202C493.05 426.512 489.558 426.604 487.129 427.405C485.651 427.894 483.784 429.178 483.627 429.816C483.369 430.845 483.842 431.428 485.856 432.572C489.795 434.816 494.869 435.808 497.367 434.828C499.412 434.023 500.296 431.783 499.291 429.989C498.765 429.066 496.725 427.639 495.295 427.202ZM496.294 431.907C497.756 431.762 498.418 431.069 498.019 430.122C497.256 428.304 493.318 427.165 491.467 428.234C490.552 428.762 491.088 430.231 492.497 431.045C493.444 431.592 495.29 432.008 496.294 431.907Z" fill="white"/>
</g>
<g filter="url(#filter6_d_0_2087)">
<rect width="212.043" height="212.043" rx="70.6809" transform="matrix(0.866025 0.5 -0.866025 0.5 1000.78 790.328)" fill="#262C3D" shape-rendering="crispEdges"/>
<path d="M1079.27 900.949L1079.27 893.913L1052.71 893.913L1052.71 879.47L1052.71 872.434L1041.74 872.434L945.79 872.434L945.79 879.47L945.79 893.913L918.466 893.913L918.466 900.949L945.661 900.949C946.367 908.318 951.562 915.576 961.344 921.223C982.382 933.37 1016.44 933.37 1037.48 921.223C1047.23 915.595 1052.49 908.336 1053.16 900.949L1079.27 900.949ZM956.79 879.452L1041.78 879.452L1041.78 893.894L956.822 893.913L956.79 879.452ZM1029.49 915.872C1012.78 925.519 985.717 925.519 969.008 915.872C961.761 911.688 957.656 906.392 956.726 900.93L1041.78 900.93C1040.85 906.392 1036.71 911.706 1029.49 915.872Z" fill="white"/>
</g>
<g filter="url(#filter7_d_0_2087)">
<rect width="213.344" height="213.344" rx="71.1145" transform="matrix(0.866025 0.5 -0.866025 0.5 568.914 714.225)" fill="#262C3D" shape-rendering="crispEdges"/>
<mask id="mask0_0_2087" style="mask-type:alpha" maskUnits="userSpaceOnUse" x="384" y="714" width="370" height="214">
<path fill-rule="evenodd" clip-rule="evenodd" d="M568.908 714.226L753.669 820.898L568.908 927.57L384.147 820.898L568.908 714.226Z" fill="#262C3D"/>
</mask>
<g mask="url(#mask0_0_2087)">
<path fill-rule="evenodd" clip-rule="evenodd" d="M491.929 865.339C449.588 840.893 449.588 800.891 492.314 776.223C535.04 752 603.941 751.778 646.282 776.668C688.238 801.336 688.238 840.893 645.127 865.783C602.786 889.784 534.27 889.784 491.929 865.339Z" fill="#262C3D"/>
<path fill-rule="evenodd" clip-rule="evenodd" d="M584.63 819.799L570.228 825.378L589.723 840.107L582.504 842.452L563.404 827.951C556.936 829.861 550.883 832.445 544.396 833.91C537.158 835.81 529.92 837.709 522.663 839.164C513.112 841.031 503.073 840.445 494.444 836.766C489.349 834.693 484.988 831.741 484.067 828.17C483.635 827.052 483.954 825.499 485.082 824.848C486.587 823.98 489.256 823.35 491.193 823.6C492.358 823.838 493.956 825.195 494.764 826.096C494.821 827.431 494.501 828.983 493.787 830.308C493.147 833.412 495.929 835.453 501.344 835.973C507.905 836.288 514.015 835.04 519.336 833.335C530.729 829.493 541.746 825.867 552.745 821.797L554.249 820.928L536.333 807.111L542.763 804.31L561.468 818.583L575.888 813.449L556.769 798.503L563.575 795.485L583.86 810.67C586.905 809.823 589.18 808.966 591.85 808.336C600.592 805.568 609.334 802.8 620.088 802.062C630.842 801.324 640.129 802.344 648.044 807.347C651.597 809.399 654.022 812.101 653.758 814.989C653.777 815.434 653.815 816.324 653.063 816.758C651.559 817.626 649.679 818.712 647.366 818.679C644.659 818.419 643.061 817.062 642.986 815.282C642.93 813.947 643.268 812.84 643.212 811.505C643.851 808.4 640.674 806.132 635.278 806.056C631.424 806.002 626.818 806.382 623.002 807.218C612.342 810.181 602.096 813.817 591.06 816.998L609.765 831.271L602.545 833.616L584.63 819.799Z" fill="white"/>
</g>
</g>
<g filter="url(#filter8_d_0_2087)">
<rect width="213.344" height="213.344" rx="71.1145" transform="matrix(0.866025 0.5 -0.866025 0.5 236.945 576.451)" fill="#262C3D" shape-rendering="crispEdges"/>
<path d="M290.708 652.604C304.998 660.855 318.717 668.776 333.008 677.026C334.151 677.686 334.144 678.351 333.565 678.685C323.62 693.668 314.254 708.316 305.46 723.294C305.452 723.959 304.302 723.963 303.151 723.967C283.591 724.039 264.031 724.111 243.899 723.853C219.165 723.612 193.281 723.375 168.547 723.134C166.825 722.808 166.825 722.808 166.832 722.144C166.414 707.864 165.997 693.583 166.158 678.969C166.283 667.676 165.836 656.053 165.96 644.76C165.968 644.096 166.547 643.761 167.126 643.427C180.39 640.389 193.648 638.015 206.913 634.977C219.598 632.274 231.705 629.904 244.391 627.2C246.121 626.862 247.271 626.858 248.986 627.848C262.698 636.433 276.996 644.019 290.708 652.604ZM275.647 661.959C265.358 656.019 254.497 649.748 244.208 643.808C243.636 643.478 243.636 643.478 243.064 643.148C242.493 642.818 242.493 642.818 241.914 643.152C236.703 646.16 231.493 649.169 225.131 652.181C224.552 652.516 224.552 652.516 225.124 652.846C226.839 653.836 228.554 654.826 230.269 655.816C235.985 659.116 241.701 662.416 247.417 665.717C247.989 666.047 247.989 666.047 248.561 666.377C249.132 666.707 248.553 667.041 247.974 667.375C245.659 668.712 242.764 670.384 240.448 671.721C239.869 672.055 239.869 672.055 238.718 672.059C234.138 670.083 230.137 667.773 225.556 665.797C219.833 663.161 213.53 660.859 207.22 659.222C204.355 658.236 201.482 657.915 198.609 657.593C195.157 657.606 192.841 658.943 193.398 660.601C193.384 661.93 193.948 662.924 194.512 663.919C196.777 667.232 200.199 669.876 203.043 672.855C207.601 676.824 212.738 680.458 217.876 684.093C219.019 684.753 219.019 684.753 217.861 685.421C207.44 691.438 196.44 697.789 186.018 703.806C184.86 704.474 184.86 704.474 186.004 705.134C191.148 708.105 196.865 711.405 202.009 714.375C203.724 715.365 203.724 715.365 205.461 714.363C214.145 709.349 222.251 704.669 230.935 699.655C233.251 698.318 235.567 696.981 237.883 695.644C239.041 694.975 239.612 695.305 240.184 695.635C245.9 698.936 251.624 701.572 258.498 704.203C263.65 706.509 268.809 708.151 274.548 709.458C276.27 709.784 278.571 709.776 280.293 710.102C282.594 710.093 283.752 709.425 283.767 708.096C283.203 707.102 283.789 706.103 283.225 705.109C280.418 698.809 274.152 693.185 266.728 688.231C264.442 686.911 262.155 685.59 260.448 683.936C259.876 683.606 259.876 683.606 261.034 682.938C263.35 681.6 266.245 679.929 268.56 678.592C269.139 678.258 269.718 677.924 270.862 678.584C272.576 679.574 274.291 680.564 276.006 681.554C281.722 684.854 286.867 687.824 292.583 691.125C293.727 691.785 294.306 691.451 294.885 691.116C295.464 690.782 295.464 690.782 296.043 690.448C300.674 687.774 305.306 685.1 310.517 682.091C311.674 681.423 311.674 681.423 310.531 680.763C296.797 674.17 285.937 667.9 275.647 661.959Z" fill="white"/>
<path d="M228.775 685.711C224.774 683.401 221.344 681.421 217.922 678.776C212.213 674.812 205.932 670.517 201.96 665.55C201.396 664.555 200.832 663.561 199.696 662.237C199.139 660.578 200.297 659.909 202.591 660.565C206.035 661.217 208.9 662.203 211.766 663.189C217.497 665.16 222.649 667.466 228.372 670.102C230.087 671.092 232.953 672.078 234.668 673.068C235.239 673.398 235.811 673.728 234.653 674.397C231.179 676.402 228.284 678.074 224.811 680.079C223.653 680.748 224.224 681.078 224.796 681.408C229.369 684.048 233.942 686.688 237.943 688.999C239.087 689.659 240.23 690.319 241.373 690.979C242.516 691.639 242.516 691.639 243.674 690.97C246.569 689.299 249.464 687.628 252.359 685.956C254.096 684.954 254.096 684.954 255.811 685.944C262.663 690.568 269.515 695.193 274.63 700.82C275.195 701.815 276.331 703.139 276.895 704.133C277.459 705.128 276.301 705.796 274.579 705.47C270.556 705.153 267.69 704.167 264.253 702.851C257.379 700.22 250.505 697.588 244.788 694.288C240.215 691.647 233.92 688.681 228.775 685.711Z" fill="white"/>
</g>
<g filter="url(#filter9_d_0_2087)">
<rect width="212.043" height="212.043" rx="70.6809" transform="matrix(0.866025 0.5 -0.866025 0.5 1456.09 230.055)" fill="#262C3D" shape-rendering="crispEdges"/>
<path d="M1507.88 342.164C1506.96 340.091 1504.02 338.396 1500.2 337.731L1472.38 333.451L1453.75 330.382L1425.93 326.103C1422.34 325.567 1419.4 323.872 1418.25 321.669L1412.23 308.972C1411.3 306.9 1412.16 304.578 1414.83 303.041L1430.58 293.946C1433.24 292.409 1437.04 291.782 1440.85 292.448L1462.4 295.919C1465.99 296.455 1468.92 298.15 1470.08 300.353L1476.09 312.792C1477.02 314.864 1476.16 317.186 1473.49 318.723L1463.29 324.616L1482.14 327.556L1492.34 321.664C1495.01 320.127 1496.09 317.935 1494.94 315.732L1484.06 292.542C1483.13 290.469 1480.19 288.774 1476.38 288.108L1435.76 281.565C1431.94 280.899 1428.15 281.526 1425.49 283.063L1395.98 300.1C1393.31 301.637 1392.23 303.829 1393.38 306.032L1404.71 329.483C1405.64 331.556 1408.58 333.251 1412.39 333.917L1440 338.324L1458.85 341.265L1486.45 345.673C1490.04 346.208 1492.97 347.903 1494.13 350.106L1500.14 362.544C1501.07 364.617 1500.21 366.939 1497.55 368.476L1481.79 377.571C1479.13 379.108 1475.33 379.735 1471.52 379.069L1449.75 375.726C1446.16 375.19 1443.23 373.495 1442.07 371.292L1436.06 358.854C1435.13 356.781 1435.99 354.459 1438.66 352.922L1448.86 347.029L1430.01 344.089L1419.81 349.981C1417.14 351.518 1416.06 353.71 1417.21 355.913L1428.54 379.364C1429.47 381.437 1432.41 383.132 1436.22 383.798L1476.84 390.341C1480.43 390.876 1484.45 390.38 1487.12 388.843L1516.63 371.806C1519.29 370.269 1520.37 368.077 1519.22 365.874L1507.88 342.164Z" fill="white"/>
</g>
<g filter="url(#filter10_d_0_2087)">
<rect width="213.344" height="213.344" rx="71.1145" transform="matrix(0.866025 0.5 -0.866025 0.5 184.735 105.547)" fill="#262C3D" shape-rendering="crispEdges"/>
<path d="M215.84 233.38C215.457 233.537 213.58 233.573 211.955 233.457C207.234 233.098 200.544 231.44 194.768 229.164C191.476 227.871 188.628 226.321 188.22 225.593C187.966 225.116 188.11 224.943 189.035 224.634C190.959 223.992 193.948 223.789 197.561 224.068C199.396 224.217 206.341 225.105 209.45 225.585C214.569 226.383 218.311 227.262 220.361 228.135C221.005 228.413 221.707 228.791 221.808 228.971C222.024 229.257 221.328 230.103 220.181 230.938C219.576 231.384 216.489 233.121 215.84 233.38ZM163.518 210.933C163.161 211.011 162.314 210.825 161.558 210.503C160.791 210.181 158.846 208.984 157.845 208.245C154.31 205.543 151.277 202.268 149.728 199.499C148.858 197.945 148.494 196.676 148.541 195.557L148.585 194.902L149.3 194.424C150.543 193.591 152.673 192.387 153.583 192.042C154.311 191.738 155.119 191.506 155.97 191.357C156.325 191.326 156.325 191.326 157.026 191.731C157.878 192.223 158.45 192.715 159.228 193.609C160.834 195.433 162.505 198.555 164.103 202.62C165.434 205.964 165.672 207.37 165.196 208.827C164.957 209.768 164.099 210.797 163.518 210.933ZM162.661 243.08C162.603 243.114 161.394 243.542 159.948 244.042C159.053 244.344 158.166 244.655 157.288 244.974C157.053 244.859 156.841 244.763 156.647 244.624L156.035 244.271L153.064 244.997C151.445 245.397 149.942 245.77 149.723 245.833L149.32 245.93L149.609 245.295L149.892 244.662L155.515 241.415L155.318 241.349C154.903 241.204 152.238 240.043 151.115 239.509C146.437 237.32 142.262 234.799 138.683 232.001C138.336 231.712 137.963 231.434 137.566 231.167C137.526 231.171 136.246 231.929 134.68 232.879L131.851 234.577L131.002 234.694C130.538 234.756 130.126 234.795 130.103 234.808C129.989 234.81 130.115 234.512 130.604 233.715C131.105 232.873 131.778 232.064 132.608 231.305L133.058 230.891L132.422 230.564L131.757 230.254L132.354 229.729C132.726 229.416 133.115 229.11 133.521 228.811L134.113 228.405L134.079 227.846L134.012 227.146C133.993 227.041 134.094 226.938 134.217 226.867L134.462 226.725L136.86 228.137L139.264 229.545L139.073 229.738L138.882 229.938L139.676 230.444L142.828 232.378L145.19 233.809L146.818 233.583L148.475 233.366L149.287 233.835L151.384 232.605L153.476 231.372L152.897 230.478C151.051 227.585 150.847 225.383 152.285 223.678C152.579 223.329 152.742 223.234 154.73 222.042C156.728 220.869 156.909 220.765 157.492 220.582C158.12 220.371 158.825 220.255 159.538 220.248C160.25 220.24 160.945 220.341 161.552 220.539C161.991 220.671 162.859 221.173 167.428 223.811L172.782 226.928L173.079 227.451C173.409 227.93 173.495 228.458 173.329 228.977C173.148 229.622 172.78 229.995 171.542 230.71C169.772 231.732 168.131 232.544 167.352 232.795C166.26 233.129 165.092 233.365 163.891 233.494C161.621 233.687 158.566 233.42 156.362 232.829L155.719 232.667L153.604 233.913L151.489 235.153L151.877 235.425L152.259 235.692L151.933 236.556L151.572 237.406L154.172 238.907C155.602 239.733 156.842 240.469 156.942 240.547C157.09 240.686 157.152 240.695 157.686 240.606L158.287 240.528L160.514 241.814C162.265 242.73 162.725 243.043 162.661 243.08Z" fill="black"/>
<path d="M146.612 240.546C146.022 240.462 145.673 240.374 145.652 240.322C145.62 240.276 145.587 239.974 145.519 239.679L145.44 239.121L144.293 239.159C141.77 239.254 141.667 239.262 141.304 239.072C140.706 238.794 140.688 238.67 141.065 237.694C141.24 237.188 141.422 236.774 141.422 236.774C141.422 236.774 141.207 236.603 140.935 236.425L140.454 236.08L139.66 236.249L138.855 236.418L138.55 236.08C138.322 235.809 138.122 235.529 137.952 235.243L137.677 234.733L138.839 234.062L143.964 237.048L149.095 240.031L148.563 240.357C147.937 240.744 147.971 240.744 146.612 240.546Z" fill="black"/>
<path d="M219.771 254.182C219.842 254.122 219.988 254.038 220.187 253.903C215.319 250.473 209.275 247.665 202.405 245.642C195.534 243.62 187.972 242.422 180.155 242.118C180.155 242.118 195.286 228.806 176.708 218.08C158.118 207.347 132.138 214.396 132.138 214.396C133.485 201.594 118.696 194.04 112.888 191.577L112.486 191.79C109.387 193.399 108.064 194.253 106.686 195.588C102.34 199.768 100.439 206.033 101.192 213.69C102.432 226.226 110.607 239.475 121.537 246.777C132.951 254.378 158.628 260.498 181.713 261.116C185.369 261.19 189.019 261.14 192.68 260.954C195.336 260.802 199.64 260.374 199.506 260.297C199.467 260.274 199.547 260.273 199.666 260.295C199.763 260.303 199.877 260.302 199.884 260.259C199.885 260.232 199.983 260.221 200.061 260.246C200.14 260.265 200.214 260.267 200.244 260.231C200.263 260.194 200.326 260.184 200.422 260.218C200.501 260.237 200.581 260.216 200.6 260.18C200.618 260.143 200.682 260.133 200.721 260.155C200.76 260.178 200.857 260.166 200.898 260.143C200.939 260.119 201.042 260.105 201.081 260.127C201.12 260.15 201.2 260.148 201.24 260.125C201.471 260.066 201.712 260.024 201.958 260C202.715 259.897 206.045 259.311 206.568 259.196C210.292 258.318 213.323 257.371 215.988 256.212C217.22 255.636 219.364 254.507 219.777 254.179L219.771 254.182ZM146.611 240.546C146.022 240.462 145.672 240.375 145.651 240.323C145.619 240.277 145.586 239.975 145.519 239.679L145.439 239.121L144.292 239.16C141.769 239.254 141.666 239.262 141.304 239.073C140.705 238.795 140.688 238.67 141.064 237.694C141.239 237.189 141.422 236.775 141.422 236.775C141.422 236.775 141.207 236.603 140.935 236.426L140.453 236.081L139.66 236.25L138.855 236.419L138.55 236.081C138.322 235.809 138.122 235.53 137.952 235.243L137.677 234.734L138.839 234.063L143.964 237.049L149.095 240.031L148.562 240.358C147.936 240.745 147.971 240.745 146.611 240.546ZM159.951 244.027C159.057 244.328 158.17 244.636 157.291 244.952C157.062 244.84 156.844 244.741 156.656 244.606L156.038 244.249L153.066 245.001C151.447 245.402 149.944 245.775 149.725 245.837L149.322 245.935L149.611 245.299L149.894 244.666L155.517 241.42L155.32 241.353C154.905 241.208 152.24 240.047 151.117 239.513C146.439 237.324 142.264 234.803 138.685 232.005C138.337 231.716 137.965 231.438 137.568 231.172C137.528 231.176 136.249 231.934 134.682 232.883L131.853 234.581L131.004 234.698C130.54 234.76 130.128 234.799 130.105 234.812C129.991 234.814 130.117 234.516 130.606 233.72C131.108 232.877 131.78 232.068 132.61 231.31L133.06 230.895L132.418 230.572L131.759 230.258L132.356 229.734C132.728 229.421 133.117 229.115 133.523 228.816L134.115 228.409L134.081 227.851C134.068 227.617 134.046 227.383 134.014 227.151C133.995 227.046 134.096 226.942 134.219 226.871L134.464 226.73L136.862 228.141L139.266 229.549L139.075 229.743L138.885 229.943L139.679 230.448L142.83 232.382L145.192 233.814L146.82 233.587L148.477 233.37L149.289 233.839L151.386 232.609L153.478 231.376L152.899 230.482C151.053 227.589 150.849 225.387 152.287 223.683C152.581 223.333 152.745 223.239 154.732 222.046C156.73 220.874 156.911 220.769 157.494 220.587C158.122 220.375 158.827 220.26 159.54 220.252C160.252 220.245 160.947 220.345 161.554 220.544C161.993 220.676 162.861 221.177 167.43 223.815L172.784 226.933L173.081 227.455C173.41 227.934 173.497 228.463 173.331 228.982C173.151 229.626 172.782 230 171.544 230.714C169.774 231.736 168.133 232.548 167.354 232.799C166.262 233.134 165.094 233.37 163.894 233.499C161.623 233.691 158.568 233.424 156.364 232.833L155.721 232.671L153.606 233.918L151.491 235.158L151.879 235.429L152.261 235.697L151.935 236.56L151.574 237.411L154.174 238.911C155.604 239.737 156.844 240.474 156.944 240.551C157.092 240.691 157.154 240.7 157.688 240.61L158.29 240.533L160.516 241.818C162.241 242.814 162.719 243.117 162.66 243.15C162.622 243.108 161.374 243.534 159.945 244.024L159.951 244.027Z" fill="white"/>
<path d="M221.688 252.893C222.593 252.325 223.476 251.747 224.337 251.158C232.722 245.353 238.012 239.709 241.737 232.642C241.851 232.392 241.994 232.146 242.166 231.905C242.186 231.849 242.227 231.806 242.246 231.769C244.739 231.024 255.1 227.883 266.081 223.792C280.999 218.245 297.027 210.939 296.182 205.481C296.182 205.481 287.966 199.942 263.781 200.139C257.161 200.227 250.521 200.642 243.97 201.384L243.415 200.74C240.271 197.024 236.313 193.573 231.634 190.466C230.243 189.528 224.61 186.276 222.657 185.283C216.717 182.298 211.577 180.342 204.977 178.568C204.725 178.508 204.477 178.443 204.233 178.374C205.414 174.542 206.013 170.674 206.024 166.813C205.933 152.534 195.987 147.614 195.987 147.614C186.089 147.03 172.958 156.758 163.103 165.7C158.284 170.097 153.805 174.609 149.678 179.222C149.463 179.274 149.245 179.318 149.023 179.356C134.926 182.289 123.245 186.212 112.838 191.552C118.657 194.021 133.453 201.552 132.106 214.374C132.106 214.374 158.085 207.332 176.669 218.061C195.248 228.788 180.121 242.103 180.121 242.103C187.936 242.411 195.494 243.61 202.362 245.632C209.231 247.654 215.275 250.458 220.148 253.885L221.683 252.89L221.688 252.893ZM161.002 176.913C161.002 176.913 172.756 161.772 185.459 156.578C187.592 155.706 189.777 155.113 191.904 154.939C191.904 154.939 199.256 160.168 197.063 176.723C197.063 176.723 193.269 176.009 187.18 175.636C187.18 175.636 187.141 175.633 187.124 175.624C178.436 175.069 169.562 175.507 161.002 176.913ZM163.521 210.935C163.153 211.006 162.311 210.823 161.555 210.502C160.788 210.18 158.843 208.983 157.842 208.243C154.307 205.541 151.274 202.266 149.725 199.497C148.855 197.943 148.491 196.675 148.538 195.555L148.582 194.9L149.297 194.423C150.54 193.59 152.67 192.385 153.58 192.04C154.308 191.736 155.116 191.505 155.968 191.356C156.322 191.325 156.322 191.325 157.023 191.73C157.875 192.221 158.447 192.713 159.225 193.608C160.831 195.431 162.502 198.554 164.1 202.619C165.431 205.963 165.669 207.368 165.193 208.826C164.954 209.767 164.096 210.795 163.515 210.932L163.521 210.935ZM215.837 233.379C215.454 233.536 213.578 233.571 211.952 233.456C207.231 233.097 200.541 231.439 194.765 229.163C191.473 227.869 188.625 226.319 188.217 225.591C187.963 225.114 188.107 224.941 189.032 224.632C190.956 223.99 193.945 223.788 197.558 224.067C199.399 224.212 206.338 225.103 209.447 225.583C214.566 226.381 218.308 227.261 220.358 228.134C221.002 228.411 221.704 228.79 221.81 228.972C222.021 229.256 221.325 230.101 220.184 230.94C219.573 231.382 216.486 233.12 215.842 233.382L215.837 233.379ZM248.304 210.926L248.288 210.89C248.037 208.99 247.471 207.117 246.6 205.296C274.829 203.773 283.591 207.847 283.591 207.847C283.227 209.067 282.206 210.305 280.69 211.54C271.644 218.839 245.652 225.78 245.652 225.78C248.19 220.928 249.091 215.883 248.304 210.926Z" fill="#9295A5"/>
<path d="M280.722 211.556C279.407 210.568 272.307 206.421 248.313 210.929L248.298 210.893C248.046 208.993 247.481 207.121 246.609 205.3C274.839 203.777 283.6 207.851 283.6 207.851C283.253 209.08 282.238 210.321 280.716 211.553L280.722 211.556Z" fill="#12151E"/>
<path d="M245.669 225.796C248.213 220.94 249.111 215.89 248.31 210.929C272.303 206.421 279.387 210.558 280.713 211.553C271.649 218.868 245.669 225.796 245.669 225.796ZM280.944 211.754L280.713 211.553L280.944 211.754Z" fill="#12151E"/>
<path d="M197.096 176.715C197.096 176.715 193.295 176.004 187.213 175.627C187.213 175.627 187.167 175.628 187.15 175.618C194.692 161.585 187.248 157.361 185.469 156.563C187.602 155.685 189.787 155.099 191.915 154.918C191.937 154.931 199.288 160.159 197.09 176.718L197.096 176.715Z" fill="#12151E"/>
<path d="M187.174 175.63C178.477 175.069 169.592 175.506 161.023 176.917C161.023 176.917 172.771 161.779 185.492 156.575C187.26 157.367 194.692 161.611 187.174 175.63Z" fill="#12151E"/>
<path d="M185.488 156.58L185.129 156.436L185.483 156.577L185.488 156.58Z" fill="#FF8300"/>
<path d="M215.546 220.577C215.546 220.577 208.948 217.233 214.796 214.75C220.655 212.267 226.099 214.709 227.253 215.604C228.407 216.506 231.79 220.806 226.559 222.715C221.328 224.617 220.787 223.361 219.803 223.035C218.831 222.703 215.546 220.577 215.546 220.577ZM169.862 194.201C169.862 194.201 163.269 190.861 169.117 188.377C174.977 185.894 180.415 188.333 181.575 189.232C182.723 190.13 186.112 194.434 180.875 196.339C175.644 198.241 175.109 196.988 174.125 196.663C173.147 196.327 169.867 194.204 169.867 194.204L169.862 194.201Z" fill="white"/>
</g>
</g>
<defs>
<filter id="filter0_d_0_2087" x="985.091" y="0.435547" width="381.405" height="223.352" filterUnits="userSpaceOnUse" color-interpolation-filters="sRGB">
<feFlood flood-opacity="0" result="BackgroundImageFix"/>
<feColorMatrix in="SourceAlpha" type="matrix" values="0 0 0 0 0 0 0 0 0 0 0 0 0 0 0 0 0 0 127 0" result="hardAlpha"/>
<feOffset dx="8.48171" dy="5.65448"/>
<feGaussianBlur stdDeviation="2.82724"/>
<feComposite in2="hardAlpha" operator="out"/>
<feColorMatrix type="matrix" values="0 0 0 0 0 0 0 0 0 0 0 0 0 0 0 0 0 0 0.11 0"/>
<feBlend mode="normal" in2="BackgroundImageFix" result="effect1_dropShadow_0_2087"/>
<feBlend mode="normal" in="SourceGraphic" in2="effect1_dropShadow_0_2087" result="shape"/>
</filter>
<filter id="filter1_d_0_2087" x="1160.93" y="495.1" width="383.658" height="224.653" filterUnits="userSpaceOnUse" color-interpolation-filters="sRGB">
<feFlood flood-opacity="0" result="BackgroundImageFix"/>
<feColorMatrix in="SourceAlpha" type="matrix" values="0 0 0 0 0 0 0 0 0 0 0 0 0 0 0 0 0 0 127 0" result="hardAlpha"/>
<feOffset dx="8.48171" dy="5.65448"/>
<feGaussianBlur stdDeviation="2.82724"/>
<feComposite in2="hardAlpha" operator="out"/>
<feColorMatrix type="matrix" values="0 0 0 0 0 0 0 0 0 0 0 0 0 0 0 0 0 0 0.11 0"/>
<feBlend mode="normal" in2="BackgroundImageFix" result="effect1_dropShadow_0_2087"/>
<feBlend mode="normal" in="SourceGraphic" in2="effect1_dropShadow_0_2087" result="shape"/>
</filter>
<filter id="filter2_d_0_2087" x="704.293" y="500.35" width="383.658" height="224.653" filterUnits="userSpaceOnUse" color-interpolation-filters="sRGB">
<feFlood flood-opacity="0" result="BackgroundImageFix"/>
<feColorMatrix in="SourceAlpha" type="matrix" values="0 0 0 0 0 0 0 0 0 0 0 0 0 0 0 0 0 0 127 0" result="hardAlpha"/>
<feOffset dx="8.48171" dy="5.65448"/>
<feGaussianBlur stdDeviation="2.82724"/>
<feComposite in2="hardAlpha" operator="out"/>
<feColorMatrix type="matrix" values="0 0 0 0 0 0 0 0 0 0 0 0 0 0 0 0 0 0 0.11 0"/>
<feBlend mode="normal" in2="BackgroundImageFix" result="effect1_dropShadow_0_2087"/>
<feBlend mode="normal" in="SourceGraphic" in2="effect1_dropShadow_0_2087" result="shape"/>
</filter>
<filter id="filter3_d_0_2087" x="836.824" y="232.678" width="371.112" height="214.616" filterUnits="userSpaceOnUse" color-interpolation-filters="sRGB">
<feFlood flood-opacity="0" result="BackgroundImageFix"/>
<feColorMatrix in="SourceAlpha" type="matrix" values="0 0 0 0 0 0 0 0 0 0 0 0 0 0 0 0 0 0 127 0" result="hardAlpha"/>
<feOffset dx="0.954147" dy="0.636098"/>
<feGaussianBlur stdDeviation="0.318049"/>
<feComposite in2="hardAlpha" operator="out"/>
<feColorMatrix type="matrix" values="0 0 0 0 0 0 0 0 0 0 0 0 0 0 0 0 0 0 0.11 0"/>
<feBlend mode="normal" in2="BackgroundImageFix" result="effect1_dropShadow_0_2087"/>
<feBlend mode="normal" in="SourceGraphic" in2="effect1_dropShadow_0_2087" result="shape"/>
</filter>
<filter id="filter4_d_0_2087" x="464.176" y="63.416" width="383.658" height="224.653" filterUnits="userSpaceOnUse" color-interpolation-filters="sRGB">
<feFlood flood-opacity="0" result="BackgroundImageFix"/>
<feColorMatrix in="SourceAlpha" type="matrix" values="0 0 0 0 0 0 0 0 0 0 0 0 0 0 0 0 0 0 127 0" result="hardAlpha"/>
<feOffset dx="8.48171" dy="5.65448"/>
<feGaussianBlur stdDeviation="2.82724"/>
<feComposite in2="hardAlpha" operator="out"/>
<feColorMatrix type="matrix" values="0 0 0 0 0 0 0 0 0 0 0 0 0 0 0 0 0 0 0.11 0"/>
<feBlend mode="normal" in2="BackgroundImageFix" result="effect1_dropShadow_0_2087"/>
<feBlend mode="normal" in="SourceGraphic" in2="effect1_dropShadow_0_2087" result="shape"/>
</filter>
<filter id="filter5_d_0_2087" x="313.285" y="336.336" width="383.658" height="224.653" filterUnits="userSpaceOnUse" color-interpolation-filters="sRGB">
<feFlood flood-opacity="0" result="BackgroundImageFix"/>
<feColorMatrix in="SourceAlpha" type="matrix" values="0 0 0 0 0 0 0 0 0 0 0 0 0 0 0 0 0 0 127 0" result="hardAlpha"/>
<feOffset dx="8.48171" dy="5.65448"/>
<feGaussianBlur stdDeviation="2.82724"/>
<feComposite in2="hardAlpha" operator="out"/>
<feColorMatrix type="matrix" values="0 0 0 0 0 0 0 0 0 0 0 0 0 0 0 0 0 0 0.11 0"/>
<feBlend mode="normal" in2="BackgroundImageFix" result="effect1_dropShadow_0_2087"/>
<feBlend mode="normal" in="SourceGraphic" in2="effect1_dropShadow_0_2087" result="shape"/>
</filter>
<filter id="filter6_d_0_2087" x="817.146" y="790.328" width="381.405" height="223.352" filterUnits="userSpaceOnUse" color-interpolation-filters="sRGB">
<feFlood flood-opacity="0" result="BackgroundImageFix"/>
<feColorMatrix in="SourceAlpha" type="matrix" values="0 0 0 0 0 0 0 0 0 0 0 0 0 0 0 0 0 0 127 0" result="hardAlpha"/>
<feOffset dx="8.48171" dy="5.65448"/>
<feGaussianBlur stdDeviation="2.82724"/>
<feComposite in2="hardAlpha" operator="out"/>
<feColorMatrix type="matrix" values="0 0 0 0 0 0 0 0 0 0 0 0 0 0 0 0 0 0 0.11 0"/>
<feBlend mode="normal" in2="BackgroundImageFix" result="effect1_dropShadow_0_2087"/>
<feBlend mode="normal" in="SourceGraphic" in2="effect1_dropShadow_0_2087" result="shape"/>
</filter>
<filter id="filter7_d_0_2087" x="384.152" y="714.225" width="383.658" height="224.653" filterUnits="userSpaceOnUse" color-interpolation-filters="sRGB">
<feFlood flood-opacity="0" result="BackgroundImageFix"/>
<feColorMatrix in="SourceAlpha" type="matrix" values="0 0 0 0 0 0 0 0 0 0 0 0 0 0 0 0 0 0 127 0" result="hardAlpha"/>
<feOffset dx="8.48171" dy="5.65448"/>
<feGaussianBlur stdDeviation="2.82724"/>
<feComposite in2="hardAlpha" operator="out"/>
<feColorMatrix type="matrix" values="0 0 0 0 0 0 0 0 0 0 0 0 0 0 0 0 0 0 0.11 0"/>
<feBlend mode="normal" in2="BackgroundImageFix" result="effect1_dropShadow_0_2087"/>
<feBlend mode="normal" in="SourceGraphic" in2="effect1_dropShadow_0_2087" result="shape"/>
</filter>
<filter id="filter8_d_0_2087" x="52.1837" y="576.451" width="383.658" height="224.653" filterUnits="userSpaceOnUse" color-interpolation-filters="sRGB">
<feFlood flood-opacity="0" result="BackgroundImageFix"/>
<feColorMatrix in="SourceAlpha" type="matrix" values="0 0 0 0 0 0 0 0 0 0 0 0 0 0 0 0 0 0 127 0" result="hardAlpha"/>
<feOffset dx="8.48171" dy="5.65448"/>
<feGaussianBlur stdDeviation="2.82724"/>
<feComposite in2="hardAlpha" operator="out"/>
<feColorMatrix type="matrix" values="0 0 0 0 0 0 0 0 0 0 0 0 0 0 0 0 0 0 0.11 0"/>
<feBlend mode="normal" in2="BackgroundImageFix" result="effect1_dropShadow_0_2087"/>
<feBlend mode="normal" in="SourceGraphic" in2="effect1_dropShadow_0_2087" result="shape"/>
</filter>
<filter id="filter9_d_0_2087" x="1272.45" y="230.055" width="381.405" height="223.352" filterUnits="userSpaceOnUse" color-interpolation-filters="sRGB">
<feFlood flood-opacity="0" result="BackgroundImageFix"/>
<feColorMatrix in="SourceAlpha" type="matrix" values="0 0 0 0 0 0 0 0 0 0 0 0 0 0 0 0 0 0 127 0" result="hardAlpha"/>
<feOffset dx="8.48171" dy="5.65448"/>
<feGaussianBlur stdDeviation="2.82724"/>
<feComposite in2="hardAlpha" operator="out"/>
<feColorMatrix type="matrix" values="0 0 0 0 0 0 0 0 0 0 0 0 0 0 0 0 0 0 0.11 0"/>
<feBlend mode="normal" in2="BackgroundImageFix" result="effect1_dropShadow_0_2087"/>
<feBlend mode="normal" in="SourceGraphic" in2="effect1_dropShadow_0_2087" result="shape"/>
</filter>
<filter id="filter10_d_0_2087" x="-0.0259552" y="105.547" width="383.658" height="224.653" filterUnits="userSpaceOnUse" color-interpolation-filters="sRGB">
<feFlood flood-opacity="0" result="BackgroundImageFix"/>
<feColorMatrix in="SourceAlpha" type="matrix" values="0 0 0 0 0 0 0 0 0 0 0 0 0 0 0 0 0 0 127 0" result="hardAlpha"/>
<feOffset dx="8.48171" dy="5.65448"/>
<feGaussianBlur stdDeviation="2.82724"/>
<feComposite in2="hardAlpha" operator="out"/>
<feColorMatrix type="matrix" values="0 0 0 0 0 0 0 0 0 0 0 0 0 0 0 0 0 0 0.11 0"/>
<feBlend mode="normal" in2="BackgroundImageFix" result="effect1_dropShadow_0_2087"/>
<feBlend mode="normal" in="SourceGraphic" in2="effect1_dropShadow_0_2087" result="shape"/>
</filter>
<clipPath id="clip0_0_2087">
<rect width="1640" height="912.786" fill="white"/>
</clipPath>
<clipPath id="clip1_0_2087">
<rect width="95.4432" height="151.118" fill="white" transform="matrix(0.866025 0.5 -0.866025 0.5 1049.54 275.487)"/>
</clipPath>
</defs>
</svg>
