<svg width="281" height="63" viewBox="0 0 281 63" fill="none" xmlns="http://www.w3.org/2000/svg">
<path d="M255.389 62.9626C240.123 62.9626 235.607 52.1161 235.607 39.7705C235.607 27.4249 239.943 16.5784 255.299 16.5784C264.422 16.5784 269.028 19.753 271.016 22.7512V0H280.5V62.3453H275.261L273.093 55.9079C271.467 58.9944 266.319 62.9626 255.389 62.9626ZM245.453 39.7705C245.453 48.8533 247.621 55.2025 258.099 55.2025C268.848 55.2025 271.106 49.0297 271.106 39.7705C271.106 31.0404 269.209 24.5148 258.189 24.5148C247.621 24.5148 245.453 30.6876 245.453 39.7705Z" fill="white"/>
<path d="M210.333 62.3453V17.1956H215.482L217.74 23.4566C220.54 17.6366 225.96 16.0493 234.18 16.5784V24.7794C224.695 23.4566 219.998 27.954 219.998 38.5359V62.3453H210.333Z" fill="white"/>
<path d="M176.747 62.9627C166.811 62.9627 158.862 58.6417 158.862 49.1179C158.862 40.8287 164.914 37.1251 178.102 35.8023L192.644 34.3914C192.373 26.984 189.934 24.074 180.631 24.074C172.05 24.074 169.701 27.4249 169.701 33.0686L160.307 33.1568C160.307 23.8094 164.281 16.5784 180.54 16.5784C199.419 16.5784 202.129 24.5149 202.129 36.6842V62.3454H196.89L194.903 55.5553C192.735 59.0826 186.321 62.9627 176.747 62.9627ZM168.798 49.0298C168.798 53.1743 172.411 55.5553 179.185 55.5553C188.489 55.5553 192.644 50.7934 192.644 42.9451V41.5342L179.547 42.9451C171.508 43.827 168.798 45.5024 168.798 49.0298Z" fill="white"/>
<path d="M126.24 62.3454C102.032 62.3454 96.7028 50.2643 96.7028 34.1268C96.7028 18.6948 102.122 5.29101 124.253 5.29101C146.473 5.29101 151.441 18.1657 151.441 33.3332C151.441 42.0633 148.551 52.0279 142.047 55.1143L152.164 56.9662V62.3454H126.24ZM106.82 34.1268C106.82 45.6788 109.891 54.3207 124.253 54.3207C138.796 54.3207 141.776 45.6788 141.776 34.215C141.776 22.5749 138.796 13.3157 124.253 13.3157C109.891 13.3157 106.82 22.5749 106.82 34.1268Z" fill="white"/>
<path d="M12.6846 5.14971C5.95525 5.14971 0.5 10.4754 0.5 17.045V40.1695C0.5 46.4158 5.43158 51.5377 11.701 52.0266V31.1086C11.701 23.0061 18.4291 16.4377 26.7287 16.4377H62.9937C62.6698 10.1503 57.3454 5.14971 50.8246 5.14971H12.6846Z" fill="white"/>
<path d="M74.5718 63L11.3398 63V52.0649H47.9816C56.2812 52.0649 63.0094 45.4965 63.0094 37.394V16.4376L74.5718 16.4376V63Z" fill="#3594EC"/>
</svg>
