<svg width="92" height="21" viewBox="0 0 92 21" fill="none" xmlns="http://www.w3.org/2000/svg">
<path d="M83.3389 20.9875C78.3776 20.9875 76.9098 17.372 76.9098 13.2568C76.9098 9.14163 78.3189 5.52613 83.3095 5.52613C86.2745 5.52613 87.7717 6.58432 88.4176 7.58373V0H91.5V20.7818H89.7973L89.0928 18.636C88.5643 19.6648 86.891 20.9875 83.3389 20.9875ZM80.1097 13.2568C80.1097 16.2844 80.8142 18.4008 84.2196 18.4008C87.713 18.4008 88.4469 16.3432 88.4469 13.2568C88.4469 10.3468 87.8304 8.17161 84.2489 8.17161C80.8142 8.17161 80.1097 10.2292 80.1097 13.2568Z" fill="white"/>
<path d="M68.6957 20.7818V5.73188H70.369L71.103 7.81888C72.013 5.87885 73.7744 5.34975 76.4458 5.52612V8.25979C73.3634 7.81887 71.8369 9.31799 71.8369 12.8453V20.7818H68.6957Z" fill="white"/>
<path d="M57.7802 20.9875C54.5509 20.9875 51.9676 19.5472 51.9676 16.3726C51.9676 13.6096 53.9344 12.375 58.2205 11.9341L62.9469 11.4638C62.8588 8.99468 62.0662 8.02467 59.0425 8.02467C56.2536 8.02467 55.4903 9.14165 55.4903 11.0229L52.4373 11.0523C52.4373 7.93648 53.729 5.52615 59.0131 5.52615C65.1487 5.52615 66.0294 8.17164 66.0294 12.228V20.7818H64.3267L63.6808 18.5184C62.9763 19.6942 60.8919 20.9875 57.7802 20.9875ZM55.1968 16.3433C55.1968 17.7248 56.371 18.5184 58.5728 18.5184C61.5965 18.5184 62.9469 16.9311 62.9469 14.315V13.8447L58.6902 14.315C56.0775 14.609 55.1968 15.1675 55.1968 16.3433Z" fill="white"/>
<path d="M41.3655 20.7818C33.498 20.7818 31.7659 16.7548 31.7659 11.3756C31.7659 6.2316 33.5273 1.76367 40.7197 1.76367C47.9414 1.76367 49.556 6.05524 49.556 11.1111C49.556 14.0211 48.6166 17.3426 46.5029 18.3715L49.7908 18.9887V20.7818H41.3655ZM35.0539 11.3756C35.0539 15.2263 36.052 18.1069 40.7197 18.1069C45.4461 18.1069 46.4148 15.2263 46.4148 11.405C46.4148 7.52495 45.4461 4.43855 40.7197 4.43855C36.052 4.43855 35.0539 7.52495 35.0539 11.3756Z" fill="white"/>
<path d="M4.46001 1.71657C2.27296 1.71657 0.5 3.4918 0.5 5.68167V13.3898C0.5 15.4719 2.10276 17.1792 4.14032 17.3422V10.3695C4.14032 7.6687 6.32697 5.47924 9.02433 5.47924H20.8104C20.7052 3.38344 18.9748 1.71657 16.8555 1.71657H4.46001Z" fill="white"/>
<path d="M24.5733 21L4.02295 21L4.02295 17.355H15.9315C18.6289 17.355 20.8155 15.1655 20.8155 12.4647V5.47921L24.5733 5.47921L24.5733 21Z" fill="#3594EC"/>
</svg>
