<svg width="810" height="763" viewBox="0 0 810 763" fill="none" xmlns="http://www.w3.org/2000/svg">
<g clip-path="url(#clip0_0_2016)">
<rect width="935.443" height="598" rx="14.2381" transform="matrix(0.866025 -0.5 0.866025 0.5 -511.5 467.639)" fill="#000209"/>
<g opacity="0.72" filter="url(#filter0_f_0_2016)">
<ellipse cx="199.163" cy="255.314" rx="199.163" ry="255.314" transform="matrix(0.866025 -0.5 0.866025 0.5 -193.891 -31.5859)" fill="#3491E7"/>
</g>
<g opacity="0.3" filter="url(#filter1_i_0_2016)">
<path d="M678.588 310.591C662.018 320.158 645.056 316.026 631.329 308.101C617.602 300.175 610.249 290.495 626.917 280.872C636.82 275.155 645.35 274.306 650.841 274.985L625.544 260.38L635.839 254.436L705.159 294.458L699.472 297.741L689.962 294.967C691.628 297.968 690.452 303.742 678.588 310.591ZM642.016 301.93C652.115 307.761 661.528 310.478 672.901 303.912C684.569 297.175 680.157 291.797 669.862 285.854C660.155 280.249 650.841 277.249 638.879 284.155C627.407 290.778 631.917 296.1 642.016 301.93Z" fill="white"/>
<path d="M628.993 338.43L578.792 309.447L584.381 306.22L593.794 308.824C590.362 303.333 594.48 298.918 603.991 294.106L613.109 299.371C601.343 304.465 601.245 310.296 613.011 317.089L639.484 332.373L628.993 338.43Z" fill="white"/>
<path d="M593.221 359.876C582.436 366.103 569.003 368.311 558.414 362.197C549.198 356.876 551.649 350.706 564.493 341.592L578.71 331.572C570.18 326.987 564.297 326.647 554.198 332.478C544.883 337.856 546.06 341.478 552.335 345.101L542.236 351.045C531.843 345.045 528.117 337.912 545.766 327.723C566.258 315.892 578.024 319.288 591.554 327.1L620.086 343.573L614.399 346.856L604.693 343.743C606.261 347.366 603.614 353.876 593.221 359.876ZM569.101 355.913C573.71 358.574 580.279 357.838 587.632 353.593C597.731 347.762 596.947 342.101 588.221 337.063L586.652 336.157L574.004 345.271C566.258 350.875 565.179 353.649 569.101 355.913Z" fill="white"/>
<path d="M537.71 391.133C511.433 406.304 492.215 401.889 474.273 391.529C457.114 381.623 448.094 369.622 472.116 355.753C496.235 341.828 515.943 346.979 532.807 356.715C542.514 362.32 550.456 370.528 546.828 376.585L559.868 371.434L565.849 374.887L537.71 391.133ZM485.254 385.189C498.098 392.605 511.041 396.228 526.63 387.227C542.416 378.113 536.043 370.698 523.297 363.339C510.354 355.866 496.824 351.791 481.038 360.904C465.448 369.905 472.41 377.774 485.254 385.189Z" fill="white"/>
<path fill-rule="evenodd" clip-rule="evenodd" d="M350.859 425.582C343.554 429.799 343.554 436.637 350.859 440.854L376.57 455.698C383.516 459.708 394.565 459.905 401.914 456.289L378.656 442.861C369.647 437.66 369.647 429.227 378.656 424.026L418.019 401.3C410.676 397.466 399.337 397.593 392.259 401.68L350.859 425.582Z" fill="white"/>
<path fill-rule="evenodd" clip-rule="evenodd" d="M413.723 463.561L482.359 423.934L430.588 394.043L418.036 401.29L441.336 414.743C450.345 419.944 450.345 428.377 441.336 433.578L401.564 456.541L413.723 463.561Z" fill="#3594EC"/>
</g>
</g>
<defs>
<filter id="filter0_f_0_2016" x="-387.819" y="-472.5" width="1175.03" height="937.979" filterUnits="userSpaceOnUse" color-interpolation-filters="sRGB">
<feFlood flood-opacity="0" result="BackgroundImageFix"/>
<feBlend mode="normal" in="SourceGraphic" in2="BackgroundImageFix" result="shape"/>
<feGaussianBlur stdDeviation="153.539" result="effect1_foregroundBlur_0_2016"/>
</filter>
<filter id="filter1_i_0_2016" x="345.38" y="254.437" width="359.779" height="213.4" filterUnits="userSpaceOnUse" color-interpolation-filters="sRGB">
<feFlood flood-opacity="0" result="BackgroundImageFix"/>
<feBlend mode="normal" in="SourceGraphic" in2="BackgroundImageFix" result="shape"/>
<feColorMatrix in="SourceAlpha" type="matrix" values="0 0 0 0 0 0 0 0 0 0 0 0 0 0 0 0 0 0 127 0" result="hardAlpha"/>
<feOffset dy="4.27551"/>
<feGaussianBlur stdDeviation="2.13775"/>
<feComposite in2="hardAlpha" operator="arithmetic" k2="-1" k3="1"/>
<feColorMatrix type="matrix" values="0 0 0 0 0 0 0 0 0 0 0 0 0 0 0 0 0 0 0.25 0"/>
<feBlend mode="normal" in2="shape" result="effect1_innerShadow_0_2016"/>
</filter>
<clipPath id="clip0_0_2016">
<rect width="935.275" height="590.169" rx="14.2381" transform="matrix(0.866025 -0.5 0.866025 0.5 -511.5 467.637)" fill="white"/>
</clipPath>
</defs>
</svg>
