<svg width="12" height="19" viewBox="0 0 12 19" fill="none" xmlns="http://www.w3.org/2000/svg">
<path d="M0.0234375 9.30957V7.62451C0.0234375 7.45296 0.0843099 7.30632 0.206055 7.18457C0.327799 7.06283 0.474447 7.00195 0.645996 7.00195C0.823079 7.00195 0.972493 7.06283 1.09424 7.18457C1.21598 7.30632 1.27686 7.45296 1.27686 7.62451V9.25977C1.27686 10.2005 1.47054 11.0251 1.85791 11.7334C2.24528 12.4417 2.79036 12.9924 3.49316 13.3853C4.19596 13.7726 5.02051 13.9663 5.9668 13.9663C6.91309 13.9663 7.73486 13.7726 8.43213 13.3853C9.13493 12.9924 9.68001 12.4417 10.0674 11.7334C10.4548 11.0251 10.6484 10.2005 10.6484 9.25977V7.62451C10.6484 7.45296 10.7093 7.30632 10.8311 7.18457C10.9528 7.06283 11.1022 7.00195 11.2793 7.00195C11.4508 7.00195 11.5975 7.06283 11.7192 7.18457C11.841 7.30632 11.9019 7.45296 11.9019 7.62451V9.30957C11.9019 10.3942 11.6777 11.3571 11.2295 12.1982C10.7868 13.0394 10.167 13.7145 9.37012 14.2236C8.57324 14.7272 7.64632 15.0233 6.58936 15.1118V17.0459H9.66895C9.84603 17.0459 9.99544 17.1068 10.1172 17.2285C10.2389 17.3503 10.2998 17.4997 10.2998 17.6768C10.2998 17.8483 10.2389 17.995 10.1172 18.1167C9.99544 18.2384 9.84603 18.2993 9.66895 18.2993H2.25635C2.07926 18.2993 1.92985 18.2384 1.80811 18.1167C1.68636 17.995 1.62549 17.8483 1.62549 17.6768C1.62549 17.4997 1.68636 17.3503 1.80811 17.2285C1.92985 17.1068 2.07926 17.0459 2.25635 17.0459H5.33594V15.1118C4.27897 15.0233 3.35205 14.7272 2.55518 14.2236C1.7583 13.7145 1.13574 13.0394 0.6875 12.1982C0.244792 11.3571 0.0234375 10.3942 0.0234375 9.30957ZM5.9668 12.1816C5.41341 12.1816 4.9292 12.0544 4.51416 11.7998C4.09912 11.5452 3.77539 11.1938 3.54297 10.7456C3.31055 10.2918 3.19434 9.76888 3.19434 9.17676V3.62354C3.19434 3.03141 3.31055 2.51123 3.54297 2.06299C3.77539 1.60921 4.09912 1.25505 4.51416 1.00049C4.9292 0.745931 5.41341 0.618652 5.9668 0.618652C6.51465 0.618652 6.99609 0.745931 7.41113 1.00049C7.83171 1.25505 8.15544 1.60921 8.38232 2.06299C8.61475 2.51123 8.73096 3.03141 8.73096 3.62354V9.17676C8.73096 9.76888 8.61475 10.2918 8.38232 10.7456C8.15544 11.1938 7.83171 11.5452 7.41113 11.7998C6.99609 12.0544 6.51465 12.1816 5.9668 12.1816Z" fill="#989FB5"/>
</svg>
