<svg width="423" height="466" viewBox="0 0 423 466" fill="none" xmlns="http://www.w3.org/2000/svg">
<path d="M352.408 0.592285H70.4369C33.6887 0.592285 3.89844 30.3826 3.89844 67.1307V785.575C3.89844 822.323 33.6887 852.114 70.4369 852.114H352.408C389.156 852.114 418.946 822.323 418.946 785.575V67.1307C418.946 30.3826 389.156 0.592285 352.408 0.592285Z" fill="#3F444F"/>
<g style="mix-blend-mode:overlay">
<path d="M351.895 2.57471H70.9545C35.0194 2.57471 5.88281 31.7113 5.88281 67.6464V785.04C5.88281 820.976 35.0194 850.112 70.9545 850.112H351.895C387.83 850.112 416.966 820.976 416.966 785.04V67.6464C416.966 31.7113 387.83 2.57471 351.895 2.57471ZM414.984 784.525C414.984 819.667 386.502 848.15 351.359 848.15H71.4897C36.3474 848.15 7.86489 819.667 7.86489 784.525V68.1815C7.86489 33.0393 36.3474 4.55679 71.4897 4.55679H351.379C386.521 4.55679 415.004 33.0393 415.004 68.1815V784.545L414.984 784.525Z" fill="#D0D7E7"/>
</g>
<path d="M350.745 7.09375H72.1242C38.3317 7.09375 10.9374 34.488 10.9374 68.2806V784.426C10.9374 818.218 38.3317 845.613 72.1242 845.613H350.745C384.538 845.613 411.932 818.218 411.932 784.426V68.2806C411.932 34.488 384.538 7.09375 350.745 7.09375Z" fill="#1D1D1B"/>
<path d="M421.383 218.145H418.945V320.777H421.383V218.145Z" fill="url(#paint0_linear_0_1512)"/>
<path d="M421.383 320.797V218.185L422.592 219.513C421.977 230.434 422.017 308.548 422.592 319.45L421.383 320.778V320.797Z" fill="url(#paint1_linear_0_1512)"/>
<path d="M2.41871 278.341H1.03125V343.353H2.41871V278.341Z" fill="url(#paint2_linear_0_1512)"/>
<path d="M1.02967 343.353V278.36L0.335938 279.213C0.692712 286.13 0.65307 335.623 0.335938 342.52L1.02967 343.373V343.353Z" fill="url(#paint3_linear_0_1512)"/>
<path d="M3.90844 278.361H2.42188V343.373H3.90844V278.361Z" fill="url(#paint4_linear_0_1512)"/>
<path d="M2.41871 196.561H1.03125V261.573H2.41871V196.561Z" fill="url(#paint5_linear_0_1512)"/>
<path d="M1.02967 261.572V196.58L0.335938 197.432C0.692712 204.349 0.65307 253.842 0.335938 260.74L1.02967 261.592V261.572Z" fill="url(#paint6_linear_0_1512)"/>
<path d="M3.90844 196.561H2.42188V261.573H3.90844V196.561Z" fill="url(#paint7_linear_0_1512)"/>
<path d="M2.41871 135.136H1.03125V168.514H2.41871V135.136Z" fill="url(#paint8_linear_0_1512)"/>
<path d="M1.02967 168.494V135.136L0.335938 135.929C0.692712 142.469 0.65307 161.16 0.335938 167.682L1.02967 168.474V168.494Z" fill="url(#paint9_linear_0_1512)"/>
<path d="M3.90844 135.136H2.42188V168.514H3.90844V135.136Z" fill="url(#paint10_linear_0_1512)"/>
<mask id="mask0_0_1512" style="mask-type:alpha" maskUnits="userSpaceOnUse" x="24" y="20" width="375" height="813">
<path d="M318.658 20.6709H351.065C377.407 20.6709 398.734 42.0179 398.734 68.3399V784.347C398.734 810.688 377.387 832.016 351.065 832.016H71.8097C45.4678 832.016 24.1406 810.669 24.1406 784.347V68.3399C24.1406 41.9981 45.4876 20.6709 71.8097 20.6709H318.658Z" fill="white"/>
</mask>
<g mask="url(#mask0_0_1512)">
<path d="M318.658 20.6709H351.065C377.407 20.6709 398.734 42.0179 398.734 68.3399V784.347C398.734 810.688 377.387 832.016 351.065 832.016H71.8097C45.4678 832.016 24.1406 810.669 24.1406 784.347V68.3399C24.1406 41.9981 45.4876 20.6709 71.8097 20.6709H318.658Z" fill="#262626"/>
</g>
<g clip-path="url(#clip0_0_1512)">
<mask id="mask1_0_1512" style="mask-type:alpha" maskUnits="userSpaceOnUse" x="24" y="20" width="375" height="813">
<path d="M318.775 20.7666H351.182C377.524 20.7666 398.851 42.1136 398.851 68.4356V784.442C398.851 810.784 377.504 832.111 351.182 832.111H71.9268C45.585 832.111 24.2578 810.764 24.2578 784.442V68.4356C24.2578 42.0938 45.6048 20.7666 71.9268 20.7666H318.775Z" fill="white"/>
</mask>
<g mask="url(#mask1_0_1512)">
<path d="M318.664 20.8623H351.071C377.413 20.8623 398.74 42.2093 398.74 68.5313V784.538C398.74 810.88 377.393 832.207 351.071 832.207H71.816C45.4741 832.207 24.1469 810.86 24.1469 784.538V68.5313C24.1469 42.1895 45.4939 20.8623 71.816 20.8623H318.664Z" fill="#000209"/>
</g>
</g>
<path d="M242.775 60.1539H176.475C169.022 60.1539 162.977 54.1086 162.977 46.656C162.977 39.2033 169.022 33.1382 176.475 33.1382H242.775C250.228 33.1382 256.273 39.1835 256.273 46.656C256.273 54.1086 250.228 60.1539 242.775 60.1539Z" fill="#1D1D1B"/>
<path d="M239.024 52.5622C242.286 52.5622 244.931 49.9177 244.931 46.6556C244.931 43.3935 242.286 40.749 239.024 40.749C235.762 40.749 233.117 43.3935 233.117 46.6556C233.117 49.9177 235.762 52.5622 239.024 52.5622Z" fill="url(#paint11_linear_0_1512)"/>
<path d="M239.018 50.0252C240.879 50.0252 242.388 48.5166 242.388 46.6557C242.388 44.7947 240.879 43.2861 239.018 43.2861C237.157 43.2861 235.649 44.7947 235.649 46.6557C235.649 48.5166 237.157 50.0252 239.018 50.0252Z" fill="url(#paint12_linear_0_1512)"/>
<path d="M241.977 46.6559C241.977 48.2812 240.649 49.6092 239.024 49.6092C237.398 49.6092 236.07 48.2812 236.07 46.6559C236.07 45.0306 237.379 43.7026 239.024 43.7026C240.669 43.7026 241.977 45.0108 241.977 46.6559Z" fill="url(#paint13_linear_0_1512)"/>
<path style="mix-blend-mode:multiply" d="M241.977 46.6559C241.977 48.2812 240.649 49.6092 239.024 49.6092C237.398 49.6092 236.07 48.2812 236.07 46.6559C236.07 45.0306 237.379 43.7026 239.024 43.7026C240.669 43.7026 241.977 45.0108 241.977 46.6559Z" fill="url(#paint14_radial_0_1512)"/>
<path style="mix-blend-mode:screen" d="M241.695 48.2019C241.695 47.6271 241.219 47.1514 240.644 47.1514C240.07 47.1514 239.594 47.6271 239.594 48.2019C239.594 48.7767 240.07 49.2524 240.644 49.2524C241.219 49.2524 241.695 48.7767 241.695 48.2019Z" fill="url(#paint15_radial_0_1512)"/>
<g clip-path="url(#clip1_0_1512)">
<path d="M102.803 71.497C99.4885 71.497 98.5078 69.0846 98.5078 66.3387C98.5078 63.5929 99.4492 61.1805 102.784 61.1805C104.764 61.1805 105.765 61.8865 106.196 62.5534V57.4932H108.256V71.3597H107.118L106.647 69.928C106.294 70.6144 105.176 71.497 102.803 71.497ZM100.646 66.3387C100.646 68.3589 101.116 69.7711 103.392 69.7711C105.725 69.7711 106.216 68.3981 106.216 66.3387C106.216 64.397 105.804 62.9456 103.411 62.9456C101.116 62.9456 100.646 64.3186 100.646 66.3387Z" fill="white"/>
<path d="M93.0312 71.3597V61.3177H94.1492L94.6395 62.7102C95.2475 61.4158 96.4243 61.0627 98.2092 61.1804V63.0044C96.1498 62.7102 95.1299 63.7105 95.1299 66.0641V71.3597H93.0312Z" fill="white"/>
<path d="M85.735 71.4967C83.5775 71.4967 81.8516 70.5357 81.8516 68.4175C81.8516 66.5738 83.1657 65.7501 86.0292 65.4559L89.1869 65.1421C89.1281 63.4945 88.5985 62.8473 86.5784 62.8473C84.7151 62.8473 84.2052 63.5926 84.2052 64.8479L82.1654 64.8675C82.1654 62.7885 83.0284 61.1802 86.5587 61.1802C90.6579 61.1802 91.2463 62.9454 91.2463 65.652V71.3595H90.1087L89.6772 69.8492C89.2065 70.6338 87.814 71.4967 85.735 71.4967ZM84.009 68.3979C84.009 69.3197 84.7936 69.8492 86.2645 69.8492C88.2847 69.8492 89.1869 68.7901 89.1869 67.0445V66.7307L86.343 67.0445C84.5974 67.2407 84.009 67.6133 84.009 68.3979Z" fill="white"/>
<path d="M74.7651 71.3597C69.5087 71.3597 68.3516 68.6727 68.3516 65.0835C68.3516 61.6511 69.5284 58.6699 74.3336 58.6699C79.1585 58.6699 80.2372 61.5335 80.2372 64.9069C80.2372 66.8486 79.6096 69.0649 78.1974 69.7514L80.3941 70.1633V71.3597H74.7651ZM70.5482 65.0835C70.5482 67.6528 71.2151 69.5749 74.3336 69.5749C77.4913 69.5749 78.1386 67.6528 78.1386 65.1031C78.1386 62.5141 77.4913 60.4547 74.3336 60.4547C71.2151 60.4547 70.5482 62.5141 70.5482 65.0835Z" fill="white"/>
<path fill-rule="evenodd" clip-rule="evenodd" d="M49.8146 58.6377C48.5147 58.6377 47.4609 59.6915 47.4609 60.9914V66.7187C47.4609 68.0186 48.5147 69.0724 49.8146 69.0724H49.8906V64.0513C49.8906 62.4481 51.1903 61.1484 52.7935 61.1484H61.0338V60.9914C61.0338 59.6915 59.9801 58.6377 58.6802 58.6377H49.8146Z" fill="white"/>
<path fill-rule="evenodd" clip-rule="evenodd" d="M49.8093 71.5044L63.5391 71.5044L63.5391 61.1482L61.0313 61.1482L61.0313 66.1694C61.0313 67.7726 59.7316 69.0723 58.1284 69.0723L49.8093 69.0723L49.8093 71.5044Z" fill="#3594EC"/>
<rect x="355.164" y="63.4824" width="15.7225" height="1.49738" fill="white"/>
<rect x="355.164" y="67.2261" width="15.7225" height="1.49738" fill="white"/>
<rect x="355.164" y="70.9692" width="15.7225" height="1.49738" fill="white"/>
<path d="M318.488 73.9638V71.7178C318.488 70.4773 319.494 69.4717 320.734 69.4717H329.719C330.959 69.4717 331.965 70.4773 331.965 71.7178V73.9638" stroke="white" stroke-width="1.49738"/>
<rect x="322.232" y="61.2363" width="5.98954" height="5.98954" rx="2.24608" stroke="white" stroke-width="1.49738"/>
<path d="M24.2266 88.938L398.531 88.938" stroke="#363840" stroke-width="1.49738"/>
<rect x="24.25" y="93.4302" width="374.346" height="426.006" fill="#000209"/>
<path d="M135.567 169.587C132.366 169.587 130.237 168.174 130.219 165.098H132.133C132.169 167.298 133.671 167.96 135.602 167.96C137.48 167.96 138.535 167.226 138.535 165.831C138.535 164.705 137.784 164.186 135.656 163.721L134.565 163.489C132.258 163.024 130.595 162.04 130.595 159.733C130.595 157.659 132.276 156.282 135.102 156.282C138.768 156.282 140.109 158.088 140.163 160.305H138.267C138.16 158.803 137.427 157.909 135.12 157.909C133.403 157.909 132.544 158.606 132.544 159.697C132.544 160.824 133.135 161.36 135.316 161.843L136.425 162.076C139.394 162.702 140.52 163.846 140.52 165.778C140.52 168.138 138.678 169.587 135.567 169.587ZM146.182 169.515C143.571 169.515 141.783 167.638 141.783 164.687C141.783 161.736 143.535 159.858 146.182 159.858C148.471 159.858 150.009 161.2 150.295 163.292H148.471C148.221 162.004 147.273 161.414 146.182 161.414C144.716 161.414 143.643 162.451 143.643 164.687C143.643 166.922 144.751 167.96 146.182 167.96C147.291 167.96 148.274 167.351 148.489 166.01H150.313C150.027 168.192 148.382 169.515 146.182 169.515ZM159.688 167.924H160.188V169.301C159.92 169.337 159.598 169.354 159.312 169.354C158.168 169.354 157.649 168.943 157.524 168.049C156.898 169.015 155.861 169.515 154.519 169.515C152.534 169.515 151.229 168.55 151.229 166.779C151.229 165.295 152.123 164.168 154.698 163.918L156.057 163.775C156.952 163.667 157.434 163.363 157.434 162.612C157.434 161.754 156.987 161.289 155.539 161.289C154.09 161.289 153.482 161.7 153.393 162.952H151.622C151.73 161.092 152.767 159.858 155.539 159.858C158.186 159.858 159.187 160.967 159.187 162.577V167.459C159.187 167.745 159.33 167.924 159.688 167.924ZM154.788 168.12C156.093 168.12 157.434 167.387 157.434 165.653V164.687C157.166 164.901 156.791 165.009 156.29 165.062L155.002 165.205C153.518 165.384 153.071 165.903 153.071 166.726C153.071 167.566 153.625 168.12 154.788 168.12ZM165.984 159.858C167.987 159.858 169.221 161.003 169.221 163.113V169.301H167.433V163.363C167.433 162.04 166.735 161.432 165.484 161.432C164.393 161.432 163.159 162.237 163.159 164.097V169.301H161.37V160.073H163.087V161.45C163.695 160.538 164.679 159.858 165.984 159.858ZM175.852 159.858C177.855 159.858 179.089 161.003 179.089 163.113V169.301H177.3V163.363C177.3 162.04 176.603 161.432 175.351 161.432C174.26 161.432 173.026 162.237 173.026 164.097V169.301H171.238V160.073H172.955V161.45C173.563 160.538 174.546 159.858 175.852 159.858ZM181.087 158.767V156.854H182.911V158.767H181.087ZM181.105 169.301V160.073H182.894V169.301H181.105ZM189.509 159.858C191.512 159.858 192.746 161.003 192.746 163.113V169.301H190.957V163.363C190.957 162.04 190.26 161.432 189.008 161.432C187.917 161.432 186.683 162.237 186.683 164.097V169.301H184.895V160.073H186.612V161.45C187.22 160.538 188.203 159.858 189.509 159.858ZM201.612 160.073H203.329V168.961C203.329 171.375 201.88 173.021 198.929 173.021C196.426 173.021 195.031 171.787 194.852 169.945H196.64C196.783 171.035 197.588 171.572 198.947 171.572C200.628 171.572 201.54 170.696 201.54 168.997V167.977C200.879 168.889 199.877 169.408 198.572 169.408C196.014 169.408 194.333 167.512 194.333 164.633C194.333 161.736 195.996 159.858 198.554 159.858C199.913 159.858 200.95 160.431 201.612 161.378V160.073ZM198.893 167.87C200.539 167.87 201.594 166.69 201.594 164.633C201.594 162.577 200.539 161.396 198.893 161.396C197.248 161.396 196.193 162.648 196.193 164.633C196.193 166.636 197.248 167.87 198.893 167.87ZM217.599 156.568H219.727L214.898 164.222V169.301H213.003V164.222L208.156 156.568H210.32L212.001 159.25C212.663 160.341 213.342 161.432 213.986 162.505C214.612 161.414 215.274 160.305 215.953 159.232L217.599 156.568ZM222.419 169.515C219.718 169.515 217.84 167.638 217.84 164.687C217.84 161.736 219.718 159.858 222.419 159.858C225.101 159.858 226.979 161.736 226.979 164.687C226.979 167.638 225.101 169.515 222.419 169.515ZM222.419 167.977C224.046 167.977 225.119 166.797 225.119 164.687C225.119 162.577 224.046 161.396 222.419 161.396C220.773 161.396 219.7 162.577 219.7 164.687C219.7 166.797 220.773 167.977 222.419 167.977ZM234.374 160.073H236.162V169.301H234.446V167.924C233.856 168.836 232.854 169.515 231.549 169.515C229.563 169.515 228.312 168.371 228.312 166.261V160.073H230.1V166.01C230.1 167.334 230.797 167.942 232.049 167.942C233.158 167.942 234.374 167.137 234.374 165.277V160.073ZM242.775 159.93C242.936 159.93 243.097 159.93 243.294 159.948V161.647H242.847C241.076 161.647 239.967 162.523 239.967 164.293V169.301H238.179V160.073H239.896V161.718C240.397 160.717 241.309 159.93 242.775 159.93ZM260.343 162.934C260.343 164.937 259.717 166.618 258.609 167.781L260.2 169.48L259.127 170.517L257.446 168.729C256.516 169.283 255.407 169.587 254.138 169.587C250.382 169.587 247.914 166.904 247.914 162.934C247.914 158.964 250.382 156.282 254.138 156.282C257.875 156.282 260.343 158.964 260.343 162.934ZM254.138 167.87C254.907 167.87 255.586 167.691 256.176 167.369L254.638 165.724L255.693 164.687L257.303 166.404C257.983 165.563 258.358 164.383 258.358 162.934C258.358 159.894 256.677 157.998 254.138 157.998C251.58 157.998 249.899 159.894 249.899 162.934C249.899 165.974 251.58 167.87 254.138 167.87ZM269.696 167.924H270.197V169.301C269.929 169.337 269.607 169.354 269.321 169.354C268.176 169.354 267.658 168.943 267.532 168.049C266.906 169.015 265.869 169.515 264.528 169.515C262.543 169.515 261.237 168.55 261.237 166.779C261.237 165.295 262.132 164.168 264.707 163.918L266.066 163.775C266.96 163.667 267.443 163.363 267.443 162.612C267.443 161.754 266.996 161.289 265.547 161.289C264.099 161.289 263.491 161.7 263.401 162.952H261.631C261.738 161.092 262.775 159.858 265.547 159.858C268.194 159.858 269.196 160.967 269.196 162.577V167.459C269.196 167.745 269.339 167.924 269.696 167.924ZM264.796 168.12C266.102 168.12 267.443 167.387 267.443 165.653V164.687C267.175 164.901 266.799 165.009 266.298 165.062L265.011 165.205C263.526 165.384 263.079 165.903 263.079 166.726C263.079 167.566 263.634 168.12 264.796 168.12ZM275.975 159.93C276.136 159.93 276.297 159.93 276.494 159.948V161.647H276.047C274.276 161.647 273.167 162.523 273.167 164.293V169.301H271.379V160.073H273.096V161.718C273.596 160.717 274.509 159.93 275.975 159.93ZM284.077 156.568H285.866V169.301H284.149V167.942C283.487 168.925 282.45 169.515 281.091 169.515C278.515 169.515 276.87 167.638 276.87 164.687C276.87 161.736 278.515 159.858 281.091 159.858C282.396 159.858 283.416 160.395 284.077 161.325V156.568ZM281.43 167.977C283.076 167.977 284.131 166.797 284.131 164.687C284.131 162.577 283.076 161.396 281.43 161.396C279.785 161.396 278.73 162.648 278.73 164.758C278.73 166.869 279.785 167.977 281.43 167.977Z" fill="#9395A4"/>
<circle cx="208.663" cy="373.318" r="164.386" stroke="#203952" stroke-opacity="0.7" stroke-width="2.5548"/>
<path d="M373.727 375.021C373.727 283.528 299.557 209.358 208.063 209.358" stroke="#3594EC" stroke-width="2.5548" stroke-linecap="round"/>
<g clip-path="url(#clip2_0_1512)">
<rect width="231.58" height="148.042" rx="3.5248" transform="matrix(1 0 -0.5 0.866025 129.539 263.009)" fill="#12151E"/>
<g filter="url(#filter0_f_0_1512)">
<ellipse cx="49.305" cy="63.2059" rx="49.305" ry="63.2059" transform="matrix(1 0 -0.5 0.866025 337.617 195.292)" fill="#3491E7"/>
</g>
<g opacity="0.7" filter="url(#filter1_i_0_1512)">
<path d="M272.89 376.648C268.153 376.648 268.476 373.663 270.438 370.264C272.399 366.866 275.469 363.881 280.233 363.881C283.064 363.881 283.989 364.755 284.129 365.58L287.745 359.317H290.688L280.78 376.478H279.154L279.505 374.706C278.51 375.556 276.281 376.648 272.89 376.648ZM273.493 370.264C272.049 372.765 271.713 374.512 274.964 374.512C278.299 374.512 279.981 372.813 281.452 370.264C282.84 367.861 283.288 366.065 279.869 366.065C276.59 366.065 274.936 367.764 273.493 370.264Z" fill="white"/>
<path d="M259.016 376.478L266.191 364.051H267.789L267.495 365.774C269.289 364.172 271.222 363.735 273.689 363.881L272.386 366.138C269.653 365.774 267.481 367.012 265.799 369.925L262.015 376.478H259.016Z" fill="white"/>
<path d="M248.491 376.648C245.408 376.648 243.628 375.459 245.141 372.837C246.459 370.555 248.925 369.536 253.227 369.172L257.964 368.783C259.057 366.745 258.763 365.944 255.876 365.944C253.213 365.944 251.952 366.866 251.055 368.419L248.126 368.444C249.612 365.871 251.994 363.88 257.039 363.88C262.897 363.88 262.477 366.065 260.543 369.415L256.465 376.478H254.839L255.301 374.609C254.068 375.58 251.462 376.648 248.491 376.648ZM248.238 372.813C247.58 373.954 248.323 374.609 250.425 374.609C253.311 374.609 255.358 373.298 256.605 371.138L256.829 370.75L252.541 371.138C249.906 371.381 248.799 371.842 248.238 372.813Z" fill="white"/>
<path d="M232.918 376.478C225.407 376.478 225.673 373.153 228.238 368.711C230.69 364.463 234.502 360.773 241.369 360.773C248.264 360.773 247.759 364.317 245.349 368.492C243.961 370.895 241.481 373.638 238.972 374.488L241.817 374.997L240.962 376.478H232.918ZM231.377 368.711C229.541 371.89 229.121 374.269 233.577 374.269C238.09 374.269 240.388 371.89 242.21 368.735C244.06 365.531 244.606 362.982 240.094 362.982C235.637 362.982 233.213 365.531 231.377 368.711Z" fill="white"/>
<path fill-rule="evenodd" clip-rule="evenodd" d="M206.773 360.735C204.685 360.735 202.146 362.201 201.102 364.009L197.427 370.374C196.435 372.093 197.15 373.502 199.016 373.638L202.34 367.88C203.628 365.65 206.76 363.842 209.335 363.842H220.59C221.488 362.111 220.631 360.735 218.607 360.735H206.773Z" fill="white"/>
<path fill-rule="evenodd" clip-rule="evenodd" d="M197.169 376.658L216.789 376.658L224.189 363.842L220.599 363.842L217.269 369.61C215.981 371.84 212.85 373.648 210.275 373.648L198.907 373.648L197.169 376.658Z" fill="#3594EC"/>
</g>
</g>
</g>
<defs>
<filter id="filter0_f_0_1512" x="220.727" y="119.271" width="269.184" height="261.518" filterUnits="userSpaceOnUse" color-interpolation-filters="sRGB">
<feFlood flood-opacity="0" result="BackgroundImageFix"/>
<feBlend mode="normal" in="SourceGraphic" in2="BackgroundImageFix" result="shape"/>
<feGaussianBlur stdDeviation="38.0104" result="effect1_foregroundBlur_0_1512"/>
</filter>
<filter id="filter1_i_0_1512" x="196.98" y="359.317" width="93.708" height="18.3993" filterUnits="userSpaceOnUse" color-interpolation-filters="sRGB">
<feFlood flood-opacity="0" result="BackgroundImageFix"/>
<feBlend mode="normal" in="SourceGraphic" in2="BackgroundImageFix" result="shape"/>
<feColorMatrix in="SourceAlpha" type="matrix" values="0 0 0 0 0 0 0 0 0 0 0 0 0 0 0 0 0 0 127 0" result="hardAlpha"/>
<feOffset dy="1.05845"/>
<feGaussianBlur stdDeviation="0.529225"/>
<feComposite in2="hardAlpha" operator="arithmetic" k2="-1" k3="1"/>
<feColorMatrix type="matrix" values="0 0 0 0 0 0 0 0 0 0 0 0 0 0 0 0 0 0 0.25 0"/>
<feBlend mode="normal" in2="shape" result="effect1_innerShadow_0_1512"/>
</filter>
<linearGradient id="paint0_linear_0_1512" x1="420.154" y1="218.145" x2="420.154" y2="320.777" gradientUnits="userSpaceOnUse">
<stop stop-color="#58595A"/>
<stop offset="0.02" stop-color="#E0E1E3"/>
<stop offset="0.04" stop-color="#A7A8A9"/>
<stop offset="0.08" stop-color="#2B1D2A"/>
<stop offset="0.11" stop-color="#8C8C8C"/>
<stop offset="0.9" stop-color="#696969"/>
<stop offset="0.94" stop-color="#2B1D2A"/>
<stop offset="0.96" stop-color="#A7A8A9"/>
<stop offset="0.98" stop-color="#8C8C8C"/>
<stop offset="1" stop-color="#A7A8A9"/>
</linearGradient>
<linearGradient id="paint1_linear_0_1512" x1="421.977" y1="218.165" x2="421.977" y2="320.778" gradientUnits="userSpaceOnUse">
<stop stop-color="#676067"/>
<stop offset="0.06" stop-color="#707070"/>
<stop offset="0.19" stop-color="#8A8A8A"/>
<stop offset="0.81" stop-color="#8A8A8A"/>
<stop offset="0.92" stop-color="#707070"/>
<stop offset="1" stop-color="#676067"/>
</linearGradient>
<linearGradient id="paint2_linear_0_1512" x1="-1737.75" y1="278.341" x2="-1737.75" y2="343.353" gradientUnits="userSpaceOnUse">
<stop stop-color="#58595A"/>
<stop offset="0.02" stop-color="#E0E1E3"/>
<stop offset="0.04" stop-color="#A7A8A9"/>
<stop offset="0.08" stop-color="#2D1E2C"/>
<stop offset="0.11" stop-color="#8C8C8C"/>
<stop offset="0.9" stop-color="#696969"/>
<stop offset="0.94" stop-color="#2D1E2C"/>
<stop offset="0.96" stop-color="#A7A8A9"/>
<stop offset="0.98" stop-color="#8C8C8C"/>
<stop offset="1" stop-color="#A7A8A9"/>
</linearGradient>
<linearGradient id="paint3_linear_0_1512" x1="0.692711" y1="278.36" x2="0.692711" y2="343.353" gradientUnits="userSpaceOnUse">
<stop stop-color="#676067"/>
<stop offset="0.06" stop-color="#707070"/>
<stop offset="0.19" stop-color="#8A8A8A"/>
<stop offset="0.81" stop-color="#8A8A8A"/>
<stop offset="0.92" stop-color="#707070"/>
<stop offset="1" stop-color="#676067"/>
</linearGradient>
<linearGradient id="paint4_linear_0_1512" x1="0.340692" y1="343.373" x2="2.32277" y2="278.361" gradientUnits="userSpaceOnUse">
<stop stop-color="#58595A"/>
<stop offset="0.05" stop-color="#2D1E2C"/>
<stop offset="0.52" stop-color="#A7A8A9"/>
<stop offset="0.96" stop-color="#2D1E2C"/>
<stop offset="1" stop-color="#A7A8A9"/>
</linearGradient>
<linearGradient id="paint5_linear_0_1512" x1="1.72498" y1="196.541" x2="1.72498" y2="261.553" gradientUnits="userSpaceOnUse">
<stop stop-color="#58595A"/>
<stop offset="0.02" stop-color="#E0E1E3"/>
<stop offset="0.04" stop-color="#A7A8A9"/>
<stop offset="0.08" stop-color="#2D1E2C"/>
<stop offset="0.11" stop-color="#8C8C8C"/>
<stop offset="0.9" stop-color="#696969"/>
<stop offset="0.94" stop-color="#2D1E2C"/>
<stop offset="0.96" stop-color="#A7A8A9"/>
<stop offset="0.98" stop-color="#8C8C8C"/>
<stop offset="1" stop-color="#A7A8A9"/>
</linearGradient>
<linearGradient id="paint6_linear_0_1512" x1="0.692711" y1="196.56" x2="0.692711" y2="261.552" gradientUnits="userSpaceOnUse">
<stop stop-color="#676067"/>
<stop offset="0.06" stop-color="#707070"/>
<stop offset="0.19" stop-color="#8A8A8A"/>
<stop offset="0.81" stop-color="#8A8A8A"/>
<stop offset="0.92" stop-color="#707070"/>
<stop offset="1" stop-color="#676067"/>
</linearGradient>
<linearGradient id="paint7_linear_0_1512" x1="3.15524" y1="261.593" x2="3.15524" y2="196.561" gradientUnits="userSpaceOnUse">
<stop stop-color="#58595A"/>
<stop offset="0.05" stop-color="#2D1E2C"/>
<stop offset="0.52" stop-color="#A7A8A9"/>
<stop offset="0.96" stop-color="#2D1E2C"/>
<stop offset="1" stop-color="#A7A8A9"/>
</linearGradient>
<linearGradient id="paint8_linear_0_1512" x1="-1737.75" y1="135.116" x2="-1737.75" y2="168.494" gradientUnits="userSpaceOnUse">
<stop stop-color="#58595A"/>
<stop offset="0.02" stop-color="#E0E1E3"/>
<stop offset="0.04" stop-color="#A7A8A9"/>
<stop offset="0.08" stop-color="#2D1E2C"/>
<stop offset="0.11" stop-color="#8C8C8C"/>
<stop offset="0.9" stop-color="#696969"/>
<stop offset="0.94" stop-color="#2D1E2C"/>
<stop offset="0.96" stop-color="#A7A8A9"/>
<stop offset="0.98" stop-color="#8C8C8C"/>
<stop offset="1" stop-color="#A7A8A9"/>
</linearGradient>
<linearGradient id="paint9_linear_0_1512" x1="0.692712" y1="135.136" x2="0.692712" y2="168.494" gradientUnits="userSpaceOnUse">
<stop stop-color="#676067"/>
<stop offset="0.06" stop-color="#707070"/>
<stop offset="0.19" stop-color="#8A8A8A"/>
<stop offset="0.81" stop-color="#8A8A8A"/>
<stop offset="0.92" stop-color="#707070"/>
<stop offset="1" stop-color="#676067"/>
</linearGradient>
<linearGradient id="paint10_linear_0_1512" x1="0.340691" y1="168.514" x2="3.15525" y2="135.136" gradientUnits="userSpaceOnUse">
<stop stop-color="#58595A"/>
<stop offset="0.05" stop-color="#2D1E2C"/>
<stop offset="0.52" stop-color="#A7A8A9"/>
<stop offset="0.96" stop-color="#2D1E2C"/>
<stop offset="1" stop-color="#A7A8A9"/>
</linearGradient>
<linearGradient id="paint11_linear_0_1512" x1="239.024" y1="52.1856" x2="239.024" y2="40.5706" gradientUnits="userSpaceOnUse">
<stop stop-color="#666666"/>
<stop offset="1" stop-color="#010104"/>
</linearGradient>
<linearGradient id="paint12_linear_0_1512" x1="239.038" y1="43.5042" x2="239.038" y2="50.1441" gradientUnits="userSpaceOnUse">
<stop stop-color="#0B131C"/>
<stop offset="1" stop-color="#354039"/>
</linearGradient>
<linearGradient id="paint13_linear_0_1512" x1="241.105" y1="48.7371" x2="236.943" y2="44.5748" gradientUnits="userSpaceOnUse">
<stop stop-color="#231F20"/>
<stop offset="0.08" stop-color="#212226"/>
<stop offset="0.2" stop-color="#1F2C37"/>
<stop offset="0.33" stop-color="#1A3C53"/>
<stop offset="0.47" stop-color="#13537B"/>
<stop offset="0.62" stop-color="#0A70AE"/>
<stop offset="0.78" stop-color="#0095EE"/>
<stop offset="0.8" stop-color="#0387D6"/>
<stop offset="0.84" stop-color="#0D689F"/>
<stop offset="0.88" stop-color="#154D71"/>
<stop offset="0.91" stop-color="#1B394E"/>
<stop offset="0.95" stop-color="#1F2A34"/>
<stop offset="0.98" stop-color="#222225"/>
<stop offset="1" stop-color="#231F20"/>
</linearGradient>
<radialGradient id="paint14_radial_0_1512" cx="0" cy="0" r="1" gradientUnits="userSpaceOnUse" gradientTransform="translate(239.024 46.6559) scale(2.9533 2.9533)">
<stop stop-color="#231F20"/>
<stop offset="0.2" stop-color="#165068"/>
<stop offset="0.38" stop-color="#0C78A1"/>
<stop offset="0.54" stop-color="#0594CB"/>
<stop offset="0.66" stop-color="#01A6E4"/>
<stop offset="0.73" stop-color="#00ADEE"/>
<stop offset="0.76" stop-color="#01A5E3"/>
<stop offset="0.81" stop-color="#0693C8"/>
<stop offset="0.87" stop-color="#0D749B"/>
<stop offset="0.94" stop-color="#184A5E"/>
<stop offset="1" stop-color="#231F20"/>
</radialGradient>
<radialGradient id="paint15_radial_0_1512" cx="0" cy="0" r="1" gradientUnits="userSpaceOnUse" gradientTransform="translate(240.644 48.2019) scale(1.0505 1.0505)">
<stop stop-color="#CCCCCC"/>
<stop offset="0.02" stop-color="#C4C4C4"/>
<stop offset="0.22" stop-color="#898989"/>
<stop offset="0.41" stop-color="#585858"/>
<stop offset="0.59" stop-color="#313131"/>
<stop offset="0.75" stop-color="#161616"/>
<stop offset="0.89" stop-color="#050505"/>
<stop offset="1"/>
</radialGradient>
<clipPath id="clip0_0_1512">
<rect width="374.593" height="811.345" fill="white" transform="translate(24.2578 20.7666)"/>
</clipPath>
<clipPath id="clip1_0_1512">
<rect width="374.346" height="788.373" fill="white" transform="translate(24.2891 20.8066)"/>
</clipPath>
<clipPath id="clip2_0_1512">
<rect width="231.538" height="146.103" rx="3.5248" transform="matrix(1 0 -0.5 0.866025 129.539 263.009)" fill="white"/>
</clipPath>
</defs>
</svg>
