<svg width="110" height="109" viewBox="0 0 110 109" fill="none" xmlns="http://www.w3.org/2000/svg">
<path d="M77.1406 3.40625H100.984C103.806 3.40625 106.094 5.69379 106.094 8.51562V35.7656" stroke="white" stroke-width="3.40625"/>
<path d="M32.8594 3.40625H10.7188C7.89692 3.40625 5.60938 5.69379 5.60938 8.51562V35.7656" stroke="white" stroke-width="3.40625"/>
<path d="M77.1406 103.891L100.984 103.891C103.806 103.891 106.094 101.603 106.094 98.7813L106.094 71.5312" stroke="white" stroke-width="3.40625"/>
<path d="M32.8594 103.891H10.7188C7.89692 103.891 5.60938 101.603 5.60937 98.7813L5.60937 71.5313" stroke="white" stroke-width="3.40625"/>
<path d="M58.6583 37.7283V60.5095C58.6583 62.3908 57.1333 63.9158 55.252 63.9158H45.7792" stroke="white" stroke-width="3.40625"/>
<path d="M41.4948 82.8044L42.9798 83.3756C52.7631 87.1384 63.6288 86.9335 73.2632 82.8044V82.8044" stroke="white" stroke-width="3.40625"/>
<path d="M77.9922 32.3594V44.2812" stroke="white" stroke-width="3.40625"/>
<path d="M36.2656 32.3594V44.2812" stroke="white" stroke-width="3.40625"/>
</svg>
