<svg width="687" height="896" viewBox="0 0 687 896" fill="none" xmlns="http://www.w3.org/2000/svg">
<g clip-path="url(#clip0_0_2107)">
<rect width="792.241" height="506.455" rx="12.0585" transform="matrix(0.866025 -0.5 2.20305e-08 1 0.266968 396.05)" fill="#0B1E31"/>
<g opacity="0.72" filter="url(#filter0_f_0_2107)">
<ellipse cx="168.674" cy="216.229" rx="168.674" ry="216.229" transform="matrix(0.866025 -0.5 2.20305e-08 1 500.915 -160.5)" fill="#3491E7"/>
</g>
<g opacity="0.7" filter="url(#filter1_i_0_2107)">
<path d="M619.405 487.498C605.372 495.6 601.22 486.204 601.22 472.78C601.22 459.356 605.206 445.261 619.322 437.111C627.709 432.269 631.944 433.276 633.771 435.481L633.771 410.743L642.49 405.709L642.49 473.499L637.674 476.28L635.681 470.431C634.186 474.65 629.453 481.697 619.405 487.498ZM610.271 467.554C610.271 477.43 612.264 483.183 621.897 477.622C631.778 471.917 633.854 464.007 633.854 453.939C633.854 444.446 632.11 438.358 621.98 444.206C612.264 449.816 610.271 457.678 610.271 467.554Z" fill="white"/>
<path d="M577.986 510.74L577.986 461.647L582.719 458.914L584.795 464.524C587.369 456.709 592.351 452.107 599.908 448.319L599.908 457.236C591.189 460.832 586.871 468.215 586.871 479.721L586.871 505.61L577.986 510.74Z" fill="white"/>
<path d="M547.115 529.238C537.981 534.511 530.673 534.032 530.673 523.676C530.673 514.663 536.237 507.424 548.36 498.986L561.73 489.733C561.48 481.823 559.238 479.953 550.685 484.891C542.797 489.446 540.638 494.336 540.638 500.472L532.002 505.554C532.002 495.39 535.656 485.418 550.602 476.789C567.957 466.769 570.449 473.96 570.449 487.192L570.449 515.095L565.632 517.875L563.806 511.547C561.813 516.533 555.917 524.156 547.115 529.238ZM539.807 518.307C539.807 522.813 543.129 523.484 549.357 519.889C557.91 514.951 561.73 507.568 561.73 499.034L561.73 497.5L549.689 505.986C542.299 511.211 539.807 514.471 539.807 518.307Z" fill="white"/>
<path d="M500.678 555.375C478.424 568.223 473.525 557.916 473.525 540.369C473.525 523.589 478.507 506.138 498.851 494.392C519.279 482.599 523.846 493.961 523.846 510.453C523.846 519.945 521.189 532.315 515.21 539.122L524.51 535.766L524.51 541.615L500.678 555.375ZM482.825 534.999C482.825 547.56 485.648 555.327 498.851 547.704C512.221 539.985 514.961 529.007 514.961 516.542C514.961 503.885 512.221 495.399 498.851 503.118C485.648 510.741 482.825 522.438 482.825 534.999Z" fill="white"/>
<path fill-rule="evenodd" clip-rule="evenodd" d="M396.273 553.453C390.087 557.025 385.072 565.711 385.072 572.854L385.072 597.998C385.072 604.79 389.605 607.742 395.369 604.946L395.369 582.2C395.369 573.39 401.554 562.677 409.184 558.272L442.522 539.024C442.224 532.36 437.329 529.749 431.335 533.21L396.273 553.453Z" fill="white"/>
<path fill-rule="evenodd" clip-rule="evenodd" d="M395.036 617.069L453.165 583.508L453.165 532.879L442.54 539.013L442.54 561.803C442.54 570.613 436.355 581.326 428.725 585.731L395.036 605.182L395.036 617.069Z" fill="#3594EC"/>
</g>
</g>
<defs>
<filter id="filter0_f_0_2107" x="240.846" y="-520.834" width="812.291" height="984.454" filterUnits="userSpaceOnUse" color-interpolation-filters="sRGB">
<feFlood flood-opacity="0" result="BackgroundImageFix"/>
<feBlend mode="normal" in="SourceGraphic" in2="BackgroundImageFix" result="shape"/>
<feGaussianBlur stdDeviation="130.035" result="effect1_foregroundBlur_0_2107"/>
</filter>
<filter id="filter1_i_0_2107" x="385.072" y="405.709" width="257.419" height="214.98" filterUnits="userSpaceOnUse" color-interpolation-filters="sRGB">
<feFlood flood-opacity="0" result="BackgroundImageFix"/>
<feBlend mode="normal" in="SourceGraphic" in2="BackgroundImageFix" result="shape"/>
<feColorMatrix in="SourceAlpha" type="matrix" values="0 0 0 0 0 0 0 0 0 0 0 0 0 0 0 0 0 0 127 0" result="hardAlpha"/>
<feOffset dy="3.62099"/>
<feGaussianBlur stdDeviation="1.8105"/>
<feComposite in2="hardAlpha" operator="arithmetic" k2="-1" k3="1"/>
<feColorMatrix type="matrix" values="0 0 0 0 0 0 0 0 0 0 0 0 0 0 0 0 0 0 0.25 0"/>
<feBlend mode="normal" in2="shape" result="effect1_innerShadow_0_2107"/>
</filter>
<clipPath id="clip0_0_2107">
<rect width="792.098" height="499.823" rx="12.0585" transform="matrix(0.866025 -0.5 2.20305e-08 1 0.266968 396.049)" fill="white"/>
</clipPath>
</defs>
</svg>
